<?xml version="1.0" encoding="utf-8"?>
<svg id="master-artboard" viewBox="400 200 600 980" version="1.1" xmlns="http://www.w3.org/2000/svg" x="0px" y="0px" style="enable-background:new 0 0 1400 980;" width="300px" height="300px"><defs><style id="ee-google-fonts">@import url(https://fonts.googleapis.com/css?family=Londrina+Shadow:400);</style></defs><path d="M 530.0173950195312 314.5799865722656 L 530.0574340820312 319.6400146484375 C 530.0574340820312 320.7933349609375 530.0440673828125 321.53668212890625 530.0173950195312 321.8699951171875 L 529.9373779296875 329.7699890136719 C 529.49072265625 329.7033386230469 528.980712890625 329.6700134277344 528.4074096679688 329.6700134277344 L 526.2974243164062 329.7200012207031 C 526.2774047851562 329.6066589355469 526.2673950195312 329.44000244140625 526.2673950195312 329.2200012207031 L 525.8173828125 329.239990234375 C 525.7640991210938 328.3933410644531 525.7340698242188 327.1066589355469 525.7274169921875 325.3800048828125 C 525.7207641601562 323.64666748046875 525.7107543945312 322.51666259765625 525.6973876953125 321.989990234375 C 525.5840454101562 322.2633361816406 525.5107421875 322.4566650390625 525.4774169921875 322.57000732421875 C 525.444091796875 322.6833190917969 525.404052734375 322.7933349609375 525.357421875 322.8999938964844 C 525.3107299804688 323.0133361816406 525.270751953125 323.1066589355469 525.2374267578125 323.17999267578125 C 525.2041015625 323.2533264160156 525.1674194335938 323.3299865722656 525.1273803710938 323.4100036621094 C 525.08740234375 323.489990234375 525.0507202148438 323.5566711425781 525.0173950195312 323.6099853515625 C 524.99072265625 323.6700134277344 524.9507446289062 323.72332763671875 524.8973999023438 323.7699890136719 C 524.8173828125 323.8500061035156 524.7374267578125 323.8900146484375 524.6574096679688 323.8900146484375 C 524.53076171875 323.8900146484375 524.3707275390625 323.7300109863281 524.1774291992188 323.4100036621094 C 523.9373779296875 323.3900146484375 523.6507568359375 322.9800109863281 523.3173828125 322.17999267578125 C 523.3040771484375 322.5666809082031 523.2974243164062 323.2966613769531 523.2974243164062 324.3699951171875 C 523.2974243164062 325.4433288574219 523.3773803710938 327.1933288574219 523.5374145507812 329.6199951171875 C 522.9107666015625 329.7200012207031 522.2440795898438 329.7699890136719 521.5374145507812 329.7699890136719 L 520.8173828125 329.7900085449219 C 519.9707641601562 329.7900085449219 519.5474243164062 329.6066589355469 519.5474243164062 329.239990234375 L 519.4274291992188 329.239990234375 C 519.3007202148438 329.239990234375 519.2007446289062 329.1600036621094 519.1273803710938 329 C 519.0540771484375 328.8399963378906 519.0173950195312 327.0566711425781 519.0173950195312 323.6499938964844 C 519.0173950195312 320.24334716796875 519.0440673828125 316.48333740234375 519.097412109375 312.3699951171875 C 519.5240478515625 312.22332763671875 520.0107421875 312.1499938964844 520.5574340820312 312.1499938964844 L 522.0173950195312 312.20001220703125 C 522.3107299804688 312.20001220703125 522.5440673828125 312.1933288574219 522.7174072265625 312.17999267578125 C 522.8307495117188 312.3399963378906 522.944091796875 312.50665283203125 523.0574340820312 312.67999267578125 L 523.1973876953125 312.6600036621094 C 523.4373779296875 312.9266662597656 523.6340942382812 313.25665283203125 523.7874145507812 313.6499938964844 C 523.9407348632812 314.0433349609375 524.0707397460938 314.40667724609375 524.1774291992188 314.739990234375 C 524.2907104492188 315.0799865722656 524.3707275390625 315.3066711425781 524.4174194335938 315.4200134277344 C 524.770751953125 313.8666687011719 525.1873779296875 312.760009765625 525.6674194335938 312.1000061035156 C 525.89404296875 312.1333312988281 526.08740234375 312.1499938964844 526.2473754882812 312.1499938964844 L 529.5574340820312 312.0299987792969 L 529.5374145507812 312.510009765625 L 530.0374145507812 312.510009765625 C 530.0240478515625 312.9100036621094 530.0173950195312 313.6000061035156 530.0173950195312 314.5799865722656 M 526.0574340820312 329 L 527.5673828125 328.9800109863281 L 528.4274291992188 328.9800109863281 C 528.607421875 328.9800109863281 528.8707275390625 328.99334716796875 529.2174072265625 329.0199890136719 L 529.2974243164062 321.3699951171875 C 529.3240966796875 321.01666259765625 529.33740234375 320.23333740234375 529.33740234375 319.0199890136719 L 529.2974243164062 314.1000061035156 C 529.2974243164062 313.2799987792969 529.3040771484375 312.6700134277344 529.3173828125 312.2699890136719 L 526.1473999023438 312.3900146484375 C 525.9274291992188 312.3900146484375 525.8007202148438 312.3833312988281 525.7673950195312 312.3699951171875 C 525.5274047851562 312.69000244140625 525.2440795898438 313.39666748046875 524.9174194335938 314.489990234375 C 524.5840454101562 315.5899963378906 524.39404296875 316.1300048828125 524.347412109375 316.1099853515625 C 524.2340698242188 316.1099853515625 524.0707397460938 315.8466796875 523.857421875 315.32000732421875 C 523.64404296875 314.7933349609375 523.4174194335938 314.2166748046875 523.1774291992188 313.5899963378906 C 522.9373779296875 312.9700012207031 522.750732421875 312.5799865722656 522.617431640625 312.4200134277344 L 522.597412109375 312.4200134277344 C 522.424072265625 312.4333190917969 522.14404296875 312.44000244140625 521.7573852539062 312.44000244140625 L 520.8973999023438 312.4200134277344 L 520.5073852539062 312.4200134277344 C 519.980712890625 312.4200134277344 519.5907592773438 312.4599914550781 519.33740234375 312.5400085449219 C 519.2840576171875 316.6333312988281 519.2573852539062 320.3999938964844 519.2573852539062 323.8399963378906 C 519.2573852539062 327.2799987792969 519.3140869140625 329 519.4274291992188 329 L 521.2274169921875 329.0199890136719 C 521.8340454101562 329.0199890136719 522.3540649414062 328.989990234375 522.7874145507812 328.92999267578125 C 522.6473999023438 326.7366638183594 522.577392578125 324.9666748046875 522.577392578125 323.6199951171875 C 522.577392578125 322.2799987792969 522.6240844726562 321.01666259765625 522.7174072265625 319.8299865722656 L 522.7874145507812 320.07000732421875 C 522.8207397460938 320.1499938964844 522.8907470703125 320.34332275390625 522.9973754882812 320.6499938964844 C 523.097412109375 320.95001220703125 523.1973876953125 321.2266540527344 523.2974243164062 321.4800109863281 C 523.3907470703125 321.7266540527344 523.4940795898438 321.99334716796875 523.607421875 322.2799987792969 C 523.8807373046875 322.8733215332031 524.0807495117188 323.1700134277344 524.2073974609375 323.1700134277344 C 524.3207397460938 323.1700134277344 524.577392578125 322.6300048828125 524.9774169921875 321.54998779296875 C 525.3773803710938 320.4700012207031 525.6240844726562 319.8399963378906 525.7174072265625 319.6600036621094 C 525.8440551757812 320.7200012207031 525.9274291992188 322.4700012207031 525.9674072265625 324.9100036621094 C 526.0073852539062 327.3500061035156 526.0374145507812 328.7133483886719 526.0574340820312 329 ZM 537.92822265625 318.9200134277344 C 537.92822265625 318.20001220703125 537.8648681640625 317.6233215332031 537.7382202148438 317.19000244140625 C 537.611572265625 316.75665283203125 537.4682006835938 316.4866638183594 537.3082275390625 316.3800048828125 C 537.148193359375 316.26666259765625 536.9548950195312 316.2099914550781 536.7282104492188 316.2099914550781 C 536.23486328125 316.2099914550781 535.7781982421875 316.3999938964844 535.3582153320312 316.7799987792969 C 534.9448852539062 317.1666564941406 534.6648559570312 317.663330078125 534.5181884765625 318.2699890136719 C 534.2982177734375 319.1833190917969 534.23486328125 320.4166564941406 534.3282470703125 321.9700012207031 C 534.3748779296875 322.2099914550781 534.438232421875 322.7300109863281 534.5181884765625 323.5299987792969 C 534.5982055664062 324.489990234375 534.7048950195312 325.1300048828125 534.8381958007812 325.45001220703125 C 535.1382446289062 325.6433410644531 535.5582275390625 325.739990234375 536.0982055664062 325.739990234375 C 536.6315307617188 325.739990234375 537.0982055664062 325.5233459472656 537.4982299804688 325.0899963378906 C 537.7382202148438 324.7699890136719 537.8782348632812 324.4566650390625 537.918212890625 324.1499938964844 C 537.9581909179688 323.8500061035156 537.9782104492188 323.0666809082031 537.9782104492188 321.79998779296875 L 537.9782104492188 320.6499938964844 L 537.92822265625 319.0199890136719 L 537.92822265625 318.9200134277344 M 536.1282348632812 330.05999755859375 C 533.8082275390625 330.05999755859375 532.2715454101562 329.2833251953125 531.5181884765625 327.7300109863281 L 531.5181884765625 327.75 C 531.1982421875 327.2366638183594 530.9982299804688 326.5566711425781 530.918212890625 325.7099914550781 C 530.8715209960938 325.1166687011719 530.8482055664062 324.3566589355469 530.8482055664062 323.42999267578125 C 530.7681884765625 322.07000732421875 530.7282104492188 320.6066589355469 530.7282104492188 319.0400085449219 C 530.7282104492188 317.47332763671875 530.8182373046875 316.2799987792969 530.9982299804688 315.4599914550781 C 531.2982177734375 314.1000061035156 531.8815307617188 313.17333984375 532.7482299804688 312.67999267578125 C 533.7548828125 312.1866760253906 534.7615356445312 311.94000244140625 535.7681884765625 311.94000244140625 C 537.9148559570312 311.94000244140625 539.4448852539062 312.489990234375 540.3582153320312 313.5899963378906 C 540.8848876953125 314.1166687011719 541.284912109375 314.6866760253906 541.5582275390625 315.29998779296875 C 541.8248901367188 315.90667724609375 541.9581909179688 316.89666748046875 541.9581909179688 318.2699890136719 C 541.9315795898438 321.489990234375 541.8848876953125 323.4266662597656 541.8182373046875 324.0799865722656 L 541.7482299804688 324.8699951171875 C 541.62158203125 326.34332275390625 541.3015747070312 327.4633483886719 540.7882080078125 328.2300109863281 C 540.341552734375 328.8566589355469 539.6815795898438 329.3166809082031 538.8082275390625 329.6099853515625 C 537.9348754882812 329.9100036621094 537.0415649414062 330.05999755859375 536.1282348632812 330.05999755859375 M 538.2182006835938 321.79998779296875 C 538.2182006835938 323.3333435058594 538.1715698242188 324.2366638183594 538.0782470703125 324.510009765625 C 537.7582397460938 325.489990234375 537.0448608398438 325.9800109863281 535.938232421875 325.9800109863281 C 535.02490234375 325.9800109863281 534.4248657226562 325.6266784667969 534.1382446289062 324.9200134277344 C 533.9315795898438 324.3933410644531 533.7982177734375 323.7533264160156 533.7382202148438 323 C 533.6848754882812 322.2466735839844 533.6415405273438 321.67999267578125 533.6082153320312 321.29998779296875 C 533.5748901367188 320.913330078125 533.5582275390625 320.5833435058594 533.5582275390625 320.30999755859375 C 533.5582275390625 317.0966796875 534.4482421875 315.489990234375 536.2282104492188 315.489990234375 C 537.5215454101562 315.489990234375 538.168212890625 316.6666564941406 538.168212890625 319.0199890136719 L 538.2182006835938 320.6499938964844 L 538.2182006835938 321.79998779296875 M 536.0582275390625 312.20001220703125 C 534.3115234375 312.20001220703125 533.0648803710938 312.57666015625 532.3182373046875 313.3299865722656 C 531.8515625 313.8566589355469 531.5382080078125 314.44000244140625 531.3782348632812 315.0799865722656 C 531.3115234375 315.3333435058594 531.2548828125 315.53668212890625 531.2081909179688 315.69000244140625 C 531.1615600585938 315.84332275390625 531.1215209960938 316.07666015625 531.0881958007812 316.3900146484375 C 531.0548706054688 316.7033386230469 531.0315551757812 316.9200134277344 531.0181884765625 317.0400085449219 C 531.0048828125 317.1600036621094 530.9915771484375 317.3900146484375 530.9782104492188 317.7300109863281 C 530.9715576171875 318.07666015625 530.9682006835938 318.2799987792969 530.9682006835938 318.3399963378906 L 530.9682006835938 319.5899963378906 C 530.9682006835938 319.9766540527344 531.0315551757812 321.7699890136719 531.158203125 324.9700012207031 C 531.1915283203125 326.6166687011719 531.5881958007812 327.75665283203125 532.3482055664062 328.3900146484375 C 533.1082153320312 329.0233459472656 534.2081909179688 329.3399963378906 535.648193359375 329.3399963378906 C 536.5281982421875 329.3399963378906 537.3882446289062 329.1933288574219 538.2282104492188 328.8999938964844 C 539.0682373046875 328.61334228515625 539.6982421875 328.1833190917969 540.1182250976562 327.6099853515625 C 540.611572265625 326.84332275390625 540.9148559570312 325.7633361816406 541.0281982421875 324.3699951171875 L 541.0982055664062 323.5799865722656 C 541.17822265625 322.6666564941406 541.2182006835938 320.7366638183594 541.2182006835938 317.7900085449219 C 541.2182006835938 316.3833312988281 541.0748901367188 315.3833312988281 540.7882080078125 314.7900085449219 C 540.4815673828125 313.92999267578125 539.8882446289062 313.2833251953125 539.0082397460938 312.8500061035156 C 538.1282348632812 312.4166564941406 537.1448974609375 312.20001220703125 536.0582275390625 312.20001220703125 ZM 552.4977416992188 312.5400085449219 L 552.7577514648438 312.55999755859375 L 552.977783203125 312.7799987792969 C 553.0111083984375 313.32000732421875 553.0277709960938 313.8800048828125 553.0277709960938 314.4599914550781 C 553.0277709960938 315.0333251953125 552.9610595703125 315.8166809082031 552.8277587890625 316.80999755859375 C 552.3211059570312 316.7300109863281 551.8977661132812 316.69000244140625 551.5577392578125 316.69000244140625 C 551.2244262695312 316.69000244140625 550.687744140625 316.71331787109375 549.94775390625 316.760009765625 L 549.8277587890625 316.760009765625 C 549.814453125 316.90667724609375 549.8077392578125 317.5333251953125 549.8077392578125 318.6400146484375 C 549.8077392578125 319.7533264160156 549.8644409179688 323.3900146484375 549.977783203125 329.54998779296875 C 549.611083984375 329.6166687011719 549.1077270507812 329.6499938964844 548.4677734375 329.6499938964844 L 547.7677612304688 329.6499938964844 C 546.8744506835938 329.6499938964844 546.177734375 329.69000244140625 545.677734375 329.7699890136719 C 545.631103515625 329.69000244140625 545.591064453125 329.5133361816406 545.5577392578125 329.239990234375 C 545.54443359375 329.239990234375 545.4244384765625 329.25665283203125 545.19775390625 329.2900085449219 C 545.1177368164062 329.1433410644531 545.0777587890625 328.8399963378906 545.0777587890625 328.3800048828125 L 545.1077270507812 324.70001220703125 C 545.1077270507812 322.413330078125 545.034423828125 319.760009765625 544.8877563476562 316.739990234375 C 544.727783203125 316.7200012207031 544.3244018554688 316.7099914550781 543.677734375 316.7099914550781 C 543.0310668945312 316.7099914550781 542.6510620117188 316.663330078125 542.5377807617188 316.57000732421875 C 542.5177612304688 316.53668212890625 542.50439453125 316.4966735839844 542.4977416992188 316.45001220703125 C 542.4910888671875 316.4033203125 542.4810791015625 316.36334228515625 542.4677734375 316.3299865722656 C 542.4677734375 316.2633361816406 542.3311157226562 316.1833190917969 542.0577392578125 316.0899963378906 C 541.9310913085938 315.8033447265625 541.8677368164062 315.1199951171875 541.8677368164062 314.0400085449219 C 541.8677368164062 312.9599914550781 541.8744506835938 312.23333740234375 541.8877563476562 311.8599853515625 L 546.4677734375 311.82000732421875 C 548.7877807617188 311.82000732421875 550.7244262695312 311.90667724609375 552.2777709960938 312.0799865722656 L 552.4977416992188 312.29998779296875 L 552.4977416992188 312.5400085449219 M 549.2577514648438 328.80999755859375 C 549.1444091796875 322.663330078125 549.0877685546875 319.0333251953125 549.0877685546875 317.9200134277344 C 549.0877685546875 316.8133239746094 549.111083984375 316.1866760253906 549.1577758789062 316.0400085449219 L 549.227783203125 316.0400085449219 C 550.0610961914062 315.99334716796875 550.6943969726562 315.9700012207031 551.1277465820312 315.9700012207031 C 551.5610961914062 315.9700012207031 551.9044189453125 315.99334716796875 552.1577758789062 316.0400085449219 C 552.2577514648438 315.3333435058594 552.3077392578125 314.69000244140625 552.3077392578125 314.1099853515625 C 552.3077392578125 313.5233459472656 552.2910766601562 312.9266662597656 552.2577514648438 312.32000732421875 C 550.6710815429688 312.1600036621094 549.1810913085938 312.0799865722656 547.7877807617188 312.0799865722656 C 546.4010620117188 312.0799865722656 545.227783203125 312.0833435058594 544.2677612304688 312.0899963378906 C 543.3077392578125 312.0966796875 542.5944213867188 312.1000061035156 542.1277465820312 312.1000061035156 L 542.1477661132812 312.1499938964844 C 542.12109375 312.3766784667969 542.1077270507812 313.01666259765625 542.1077270507812 314.07000732421875 C 542.1077270507812 315.1300048828125 542.1544189453125 315.7466735839844 542.2477416992188 315.9200134277344 C 542.29443359375 315.9333190917969 542.7110595703125 315.95001220703125 543.4977416992188 315.9700012207031 C 544.2777709960938 315.98333740234375 544.8211059570312 316.0633239746094 545.1277465820312 316.2099914550781 L 545.1477661132812 316.2300109863281 C 545.2810668945312 319.1433410644531 545.3477783203125 322.0233459472656 545.3477783203125 324.8699951171875 L 545.2977294921875 328.7799987792969 C 545.2977294921875 328.8133239746094 545.304443359375 328.8933410644531 545.3177490234375 329.0199890136719 C 545.6044311523438 328.97332763671875 545.9177856445312 328.95001220703125 546.2577514648438 328.95001220703125 L 547.2677612304688 328.95001220703125 C 548.207763671875 328.95001220703125 548.87109375 328.9200134277344 549.2577514648438 328.8599853515625 L 549.2577514648438 328.80999755859375 ZM 560.1475219726562 318.9200134277344 C 560.1475219726562 318.20001220703125 560.0841674804688 317.6233215332031 559.95751953125 317.19000244140625 C 559.8308715820312 316.75665283203125 559.6875 316.4866638183594 559.5275268554688 316.3800048828125 C 559.3674926757812 316.26666259765625 559.1741943359375 316.2099914550781 558.947509765625 316.2099914550781 C 558.4541625976562 316.2099914550781 557.9974975585938 316.3999938964844 557.5775146484375 316.7799987792969 C 557.1641845703125 317.1666564941406 556.8841552734375 317.663330078125 556.7374877929688 318.2699890136719 C 556.5175170898438 319.1833190917969 556.4541625976562 320.4166564941406 556.5475463867188 321.9700012207031 C 556.5941772460938 322.2099914550781 556.6575317382812 322.7300109863281 556.7374877929688 323.5299987792969 C 556.8175048828125 324.489990234375 556.9241943359375 325.1300048828125 557.0574951171875 325.45001220703125 C 557.3575439453125 325.6433410644531 557.7775268554688 325.739990234375 558.3175048828125 325.739990234375 C 558.850830078125 325.739990234375 559.3175048828125 325.5233459472656 559.717529296875 325.0899963378906 C 559.95751953125 324.7699890136719 560.0975341796875 324.4566650390625 560.1375122070312 324.1499938964844 C 560.177490234375 323.8500061035156 560.197509765625 323.0666809082031 560.197509765625 321.79998779296875 L 560.197509765625 320.6499938964844 L 560.1475219726562 319.0199890136719 L 560.1475219726562 318.9200134277344 M 558.3475341796875 330.05999755859375 C 556.0275268554688 330.05999755859375 554.4908447265625 329.2833251953125 553.7374877929688 327.7300109863281 L 553.7374877929688 327.75 C 553.4175415039062 327.2366638183594 553.217529296875 326.5566711425781 553.1375122070312 325.7099914550781 C 553.0908203125 325.1166687011719 553.0675048828125 324.3566589355469 553.0675048828125 323.42999267578125 C 552.9874877929688 322.07000732421875 552.947509765625 320.6066589355469 552.947509765625 319.0400085449219 C 552.947509765625 317.47332763671875 553.0375366210938 316.2799987792969 553.217529296875 315.4599914550781 C 553.5175170898438 314.1000061035156 554.100830078125 313.17333984375 554.967529296875 312.67999267578125 C 555.9741821289062 312.1866760253906 556.9808349609375 311.94000244140625 557.9874877929688 311.94000244140625 C 560.1341552734375 311.94000244140625 561.6641845703125 312.489990234375 562.5775146484375 313.5899963378906 C 563.1041870117188 314.1166687011719 563.5042114257812 314.6866760253906 563.7775268554688 315.29998779296875 C 564.044189453125 315.90667724609375 564.177490234375 316.89666748046875 564.177490234375 318.2699890136719 C 564.15087890625 321.489990234375 564.1041870117188 323.4266662597656 564.0375366210938 324.0799865722656 L 563.967529296875 324.8699951171875 C 563.8408203125 326.34332275390625 563.5208740234375 327.4633483886719 563.0075073242188 328.2300109863281 C 562.5608520507812 328.8566589355469 561.90087890625 329.3166809082031 561.0275268554688 329.6099853515625 C 560.1541748046875 329.9100036621094 559.2608642578125 330.05999755859375 558.3475341796875 330.05999755859375 M 560.4375 321.79998779296875 C 560.4375 323.3333435058594 560.390869140625 324.2366638183594 560.2975463867188 324.510009765625 C 559.9775390625 325.489990234375 559.26416015625 325.9800109863281 558.1575317382812 325.9800109863281 C 557.2442016601562 325.9800109863281 556.6441650390625 325.6266784667969 556.3575439453125 324.9200134277344 C 556.15087890625 324.3933410644531 556.0175170898438 323.7533264160156 555.95751953125 323 C 555.9041748046875 322.2466735839844 555.86083984375 321.67999267578125 555.8275146484375 321.29998779296875 C 555.794189453125 320.913330078125 555.7775268554688 320.5833435058594 555.7775268554688 320.30999755859375 C 555.7775268554688 317.0966796875 556.6675415039062 315.489990234375 558.447509765625 315.489990234375 C 559.7408447265625 315.489990234375 560.3875122070312 316.6666564941406 560.3875122070312 319.0199890136719 L 560.4375 320.6499938964844 L 560.4375 321.79998779296875 M 558.2775268554688 312.20001220703125 C 556.5308227539062 312.20001220703125 555.2841796875 312.57666015625 554.5375366210938 313.3299865722656 C 554.0708618164062 313.8566589355469 553.7575073242188 314.44000244140625 553.5975341796875 315.0799865722656 C 553.5308227539062 315.3333435058594 553.4741821289062 315.53668212890625 553.427490234375 315.69000244140625 C 553.380859375 315.84332275390625 553.3408203125 316.07666015625 553.3074951171875 316.3900146484375 C 553.274169921875 316.7033386230469 553.2508544921875 316.9200134277344 553.2374877929688 317.0400085449219 C 553.2241821289062 317.1600036621094 553.2108764648438 317.3900146484375 553.197509765625 317.7300109863281 C 553.1908569335938 318.07666015625 553.1875 318.2799987792969 553.1875 318.3399963378906 L 553.1875 319.5899963378906 C 553.1875 319.9766540527344 553.2508544921875 321.7699890136719 553.3775024414062 324.9700012207031 C 553.4108276367188 326.6166687011719 553.8074951171875 327.75665283203125 554.5675048828125 328.3900146484375 C 555.3275146484375 329.0233459472656 556.427490234375 329.3399963378906 557.8674926757812 329.3399963378906 C 558.7474975585938 329.3399963378906 559.6075439453125 329.1933288574219 560.447509765625 328.8999938964844 C 561.2875366210938 328.61334228515625 561.9175415039062 328.1833190917969 562.3375244140625 327.6099853515625 C 562.8308715820312 326.84332275390625 563.1341552734375 325.7633361816406 563.2474975585938 324.3699951171875 L 563.3175048828125 323.5799865722656 C 563.3975219726562 322.6666564941406 563.4375 320.7366638183594 563.4375 317.7900085449219 C 563.4375 316.3833312988281 563.294189453125 315.3833312988281 563.0075073242188 314.7900085449219 C 562.7008666992188 313.92999267578125 562.1075439453125 313.2833251953125 561.2275390625 312.8500061035156 C 560.3475341796875 312.4166564941406 559.3641967773438 312.20001220703125 558.2775268554688 312.20001220703125 ZM 580.26171875 325.760009765625 L 580.291748046875 325.9800109863281 C 580.4783935546875 325.9800109863281 580.62841796875 325.9700012207031 580.7417602539062 325.95001220703125 L 580.7417602539062 326.239990234375 C 580.7750854492188 326.7200012207031 580.791748046875 327.2166748046875 580.791748046875 327.7300109863281 C 580.791748046875 328.24334716796875 580.695068359375 328.8833312988281 580.5017700195312 329.6499938964844 L 574.2117309570312 329.7200012207031 C 572.791748046875 329.7200012207031 571.465087890625 329.67333984375 570.2317504882812 329.5799865722656 L 570.2317504882812 329.1199951171875 C 570.2317504882812 329.1199951171875 570.0717163085938 329.11334228515625 569.7517700195312 329.1000061035156 L 569.6117553710938 318.4599914550781 C 569.6117553710938 316.4466552734375 569.675048828125 314.3666687011719 569.8017578125 312.2200012207031 C 572.7951049804688 312.0799865722656 575.5950927734375 312.010009765625 578.2017211914062 312.010009765625 C 579.4617309570312 312.010009765625 580.1250610351562 312.1066589355469 580.1917724609375 312.29998779296875 C 580.1917724609375 312.4599914550781 580.271728515625 312.5733337402344 580.4317626953125 312.6400146484375 C 580.5917358398438 312.71331787109375 580.6717529296875 312.760009765625 580.6717529296875 312.7799987792969 C 580.7384033203125 313.14666748046875 580.771728515625 313.55999755859375 580.771728515625 314.0199890136719 L 580.6717529296875 316.4200134277344 C 579.8583984375 316.61334228515625 578.8250732421875 316.7099914550781 577.5717163085938 316.7099914550781 L 576.7117309570312 316.7099914550781 L 575.771728515625 316.69000244140625 C 575.291748046875 316.69000244140625 574.7984008789062 316.71331787109375 574.291748046875 316.760009765625 L 574.2117309570312 318.489990234375 L 574.2117309570312 318.70001220703125 L 574.6517333984375 318.7300109863281 L 575.5817260742188 318.70001220703125 C 575.6617431640625 318.70001220703125 576.061767578125 318.7266540527344 576.78173828125 318.7799987792969 C 576.78173828125 319.0799865722656 576.8551025390625 319.2300109863281 577.0017700195312 319.2300109863281 L 577.26171875 319.260009765625 C 577.3417358398438 319.67333984375 577.3817138671875 320.1600036621094 577.3817138671875 320.7200012207031 L 577.3317260742188 323 C 576.8850708007812 323.1266784667969 576.3050537109375 323.1933288574219 575.5917358398438 323.20001220703125 C 574.8850708007812 323.21331787109375 574.4917602539062 323.2266540527344 574.4117431640625 323.239990234375 C 574.3583984375 323.4800109863281 574.3317260742188 323.84332275390625 574.3317260742188 324.3299865722656 C 574.3317260742188 324.8166809082031 574.3417358398438 325.1666564941406 574.3617553710938 325.3800048828125 C 576.28173828125 325.47332763671875 577.618408203125 325.5199890136719 578.3717651367188 325.5199890136719 C 579.118408203125 325.5199890136719 579.7484130859375 325.5033264160156 580.26171875 325.4700012207031 L 580.26171875 325.760009765625 M 573.4717407226562 329 L 579.8317260742188 328.92999267578125 C 579.9917602539062 328.3033447265625 580.0717163085938 327.74334716796875 580.0717163085938 327.25 C 580.0717163085938 326.75 580.0550537109375 326.260009765625 580.021728515625 325.7799987792969 L 580.021728515625 325.739990234375 C 579.78173828125 325.7533264160156 579.4384155273438 325.760009765625 578.9917602539062 325.760009765625 L 573.7317504882812 325.6199951171875 L 573.7117309570312 325.5899963378906 C 573.6450805664062 325.19000244140625 573.6117553710938 324.67333984375 573.6117553710938 324.0400085449219 C 573.6117553710938 323.413330078125 573.6450805664062 322.92999267578125 573.7117309570312 322.5899963378906 C 573.8050537109375 322.510009765625 574.2317504882812 322.4700012207031 574.9917602539062 322.4700012207031 C 575.7517700195312 322.4700012207031 576.291748046875 322.42333984375 576.6117553710938 322.3299865722656 L 576.6417236328125 320.239990234375 C 576.6417236328125 319.67999267578125 576.618408203125 319.2633361816406 576.5717163085938 318.989990234375 L 576.5717163085938 318.9700012207031 C 575.465087890625 318.9700012207031 574.4783935546875 318.9466552734375 573.6117553710938 318.8999938964844 L 573.5917358398438 318.8699951171875 C 573.5250854492188 318.6300048828125 573.4917602539062 318.32666015625 573.4917602539062 317.9599914550781 L 573.5717163085938 316.05999755859375 C 573.7584228515625 316.0133361816406 574.3250732421875 315.989990234375 575.271728515625 315.989990234375 L 577.1717529296875 315.989990234375 C 578.33837890625 315.989990234375 579.2650756835938 315.9100036621094 579.9517211914062 315.75 L 579.9517211914062 315.7300109863281 L 580.021728515625 313.45001220703125 C 580.021728515625 313.0833435058594 579.9984130859375 312.7066650390625 579.9517211914062 312.32000732421875 C 579.9517211914062 312.2733459472656 579.0350952148438 312.25 577.2017211914062 312.25 C 575.368408203125 312.25 572.9717407226562 312.32000732421875 570.01171875 312.4599914550781 C 569.9183959960938 314.0133361816406 569.8717651367188 315.9333190917969 569.8717651367188 318.2200012207031 L 569.9917602539062 328.8800048828125 C 570.9384155273438 328.9599914550781 572.098388671875 329 573.4717407226562 329 ZM 581.752685546875 329.54998779296875 C 581.752685546875 329.2300109863281 581.6627197265625 329.07000732421875 581.4827270507812 329.07000732421875 L 581.272705078125 329.07000732421875 C 581.2060546875 327.51666259765625 581.1726684570312 324.7799987792969 581.1726684570312 320.8599853515625 L 581.1726684570312 317.9599914550781 C 581.1726684570312 315.2733459472656 581.1493530273438 313.3299865722656 581.1027221679688 312.1300048828125 C 582.3160400390625 311.7900085449219 583.5760498046875 311.6199951171875 584.8826904296875 311.6199951171875 C 586.1826782226562 311.6199951171875 587.4027099609375 311.82666015625 588.542724609375 312.239990234375 C 589.676025390625 312.64666748046875 590.6460571289062 313.32000732421875 591.4526977539062 314.260009765625 C 592.2660522460938 315.2066650390625 592.7127075195312 316.35333251953125 592.792724609375 317.70001220703125 L 592.792724609375 317.7200012207031 C 592.792724609375 319.2733459472656 592.18603515625 320.6199951171875 590.9727172851562 321.760009765625 C 589.7660522460938 322.90667724609375 588.3860473632812 323.4800109863281 586.8327026367188 323.4800109863281 C 586.5660400390625 323.4800109863281 586.3660278320312 323.47332763671875 586.2327270507812 323.4599914550781 L 586.2327270507812 324.4599914550781 C 586.2327270507812 326 586.2593383789062 327.6666564941406 586.3126831054688 329.4599914550781 C 586.2460327148438 329.4599914550781 585.916015625 329.49334716796875 585.3226928710938 329.55999755859375 C 584.7293701171875 329.6333312988281 584.1527099609375 329.6700134277344 583.5927124023438 329.6700134277344 C 583.03271484375 329.6700134277344 582.4193725585938 329.6300048828125 581.752685546875 329.54998779296875 M 581.5126953125 328.8599853515625 C 581.9393920898438 328.9200134277344 582.666015625 328.95001220703125 583.6926879882812 328.95001220703125 C 584.7193603515625 328.95001220703125 585.3527221679688 328.8699951171875 585.5927124023438 328.7099914550781 C 585.5393676757812 327.15667724609375 585.5126953125 325.6866760253906 585.5126953125 324.29998779296875 L 585.5126953125 323.3599853515625 C 585.5126953125 323.0533447265625 585.5060424804688 322.8299865722656 585.49267578125 322.69000244140625 C 585.7793579101562 322.7366638183594 586.0660400390625 322.760009765625 586.3527221679688 322.760009765625 C 587.7660522460938 322.760009765625 589.0726928710938 322.2466735839844 590.272705078125 321.2200012207031 C 591.4727172851562 320.20001220703125 592.0726928710938 318.9866638183594 592.0726928710938 317.5799865722656 L 592.0726928710938 317.2200012207031 C 592.0193481445312 316.260009765625 591.7793579101562 315.4200134277344 591.3527221679688 314.70001220703125 C 590.9193725585938 313.9800109863281 590.349365234375 313.4200134277344 589.6427001953125 313.0199890136719 C 588.2493896484375 312.2466735839844 586.6427001953125 311.8599853515625 584.8226928710938 311.8599853515625 C 583.6826782226562 311.8599853515625 582.522705078125 312.0133361816406 581.3427124023438 312.32000732421875 C 581.4027099609375 314.11334228515625 581.4326782226562 316.9533386230469 581.4326782226562 320.8399963378906 L 581.4326782226562 325.05999755859375 C 581.4326782226562 326.40667724609375 581.4593505859375 327.67333984375 581.5126953125 328.8599853515625 M 584.8726806640625 317.4100036621094 L 584.8726806640625 316.5 C 584.8726806640625 316.2266540527344 584.8626708984375 315.9533386230469 584.8427124023438 315.67999267578125 C 584.9426879882812 315.586669921875 585.3360595703125 315.5400085449219 586.022705078125 315.5400085449219 C 586.7093505859375 315.5400085449219 587.3260498046875 315.7633361816406 587.8726806640625 316.2099914550781 C 588.3660278320312 316.510009765625 588.6126708984375 316.97332763671875 588.6126708984375 317.6000061035156 C 588.6126708984375 318.3999938964844 588.1793823242188 318.9033203125 587.3126831054688 319.1099853515625 C 586.8060302734375 319.22332763671875 586.079345703125 319.2799987792969 585.1326904296875 319.2799987792969 L 585.0626831054688 319.2799987792969 C 584.93603515625 318.8933410644531 584.8726806640625 318.2699890136719 584.8726806640625 317.4100036621094 M 588.1326904296875 318.3699951171875 C 588.292724609375 318.163330078125 588.3726806640625 317.86334228515625 588.3726806640625 317.4700012207031 C 588.3726806640625 317.07666015625 588.166015625 316.77667236328125 587.752685546875 316.57000732421875 C 587.3327026367188 316.36334228515625 586.916015625 316.260009765625 586.502685546875 316.260009765625 C 586.0827026367188 316.260009765625 585.7693481445312 316.2900085449219 585.5626831054688 316.3500061035156 C 585.5827026367188 316.5899963378906 585.5927124023438 316.9333190917969 585.5927124023438 317.3800048828125 L 585.5927124023438 318.0799865722656 C 585.5927124023438 318.5733337402344 585.6060180664062 318.88665771484375 585.6326904296875 319.0199890136719 L 585.752685546875 319.0199890136719 C 587.03271484375 319.0199890136719 587.8260498046875 318.8033447265625 588.1326904296875 318.3699951171875 ZM 593.71630859375 311.7699890136719 L 596.5562744140625 311.8900146484375 L 597.9462890625 311.8900146484375 L 597.9462890625 312.3699951171875 L 598.42626953125 312.3699951171875 L 598.42626953125 312.70001220703125 L 598.2562866210938 324.3399963378906 C 598.2562866210938 326.1000061035156 598.302978515625 327.8066711425781 598.3963012695312 329.4599914550781 C 598.1429443359375 329.7133483886719 597.5596313476562 329.8399963378906 596.6463012695312 329.8399963378906 L 594.5562744140625 329.7900085449219 C 594.2095947265625 329.7900085449219 593.8662719726562 329.8299865722656 593.5263061523438 329.9100036621094 C 593.5263061523438 329.8500061035156 593.5296020507812 329.7533264160156 593.5362548828125 329.6199951171875 C 593.5496215820312 329.49334716796875 593.5562744140625 329.3999938964844 593.5562744140625 329.3399963378906 C 593.282958984375 329.3666687011719 593.1129760742188 329.39666748046875 593.0462646484375 329.42999267578125 C 593.1596069335938 327.7833251953125 593.21630859375 326.2799987792969 593.21630859375 324.9200134277344 L 593.0462646484375 316.6400146484375 C 593.0462646484375 315.0733337402344 593.1262817382812 313.4666748046875 593.2862548828125 311.82000732421875 C 593.512939453125 311.78668212890625 593.6563110351562 311.7699890136719 593.71630859375 311.7699890136719 M 597.5362548828125 323.6499938964844 L 597.706298828125 312.2200012207031 L 597.706298828125 312.1300048828125 L 596.5762939453125 312.1300048828125 L 593.5962524414062 312.010009765625 L 593.5062866210938 312.010009765625 L 593.5062866210938 312.05999755859375 C 593.359619140625 313.35333251953125 593.2862548828125 314.8733215332031 593.2862548828125 316.6199951171875 L 593.456298828125 325.05999755859375 C 593.456298828125 326.40667724609375 593.4096069335938 327.7533264160156 593.3162841796875 329.1000061035156 C 593.5362548828125 329.0666809082031 593.7196044921875 329.04998779296875 593.8662719726562 329.04998779296875 L 596.2662963867188 329.1400146484375 C 597.032958984375 329.1400146484375 597.5029296875 329.0533447265625 597.67626953125 328.8800048828125 C 597.5829467773438 327.1533203125 597.5362548828125 325.4100036621094 597.5362548828125 323.6499938964844 ZM 599.1705322265625 316.1400146484375 L 599.1505737304688 315.8699951171875 C 599.1505737304688 315.34332275390625 599.25390625 314.86334228515625 599.4605712890625 314.42999267578125 C 600.19384765625 312.3699951171875 601.7305297851562 311.3399963378906 604.070556640625 311.3399963378906 C 605.7638549804688 311.3399963378906 607.2872314453125 311.9800109863281 608.6405639648438 313.260009765625 C 609.993896484375 314.5400085449219 610.6705322265625 315.9866638183594 610.6705322265625 317.6000061035156 C 610.6705322265625 318.2266540527344 610.54052734375 318.8900146484375 610.280517578125 319.5899963378906 C 609.820556640625 319.7033386230469 609.2772216796875 319.760009765625 608.6505737304688 319.760009765625 C 608.030517578125 319.760009765625 607.280517578125 319.67333984375 606.4005737304688 319.5 L 606.3505249023438 319.1099853515625 C 606.2838745117188 319.0966796875 606.2305297851562 319.086669921875 606.1905517578125 319.0799865722656 C 606.1505737304688 319.0666809082031 606.1105346679688 319.0533447265625 606.070556640625 319.0400085449219 C 606.030517578125 319.02667236328125 606.00390625 319.010009765625 605.9905395507812 318.989990234375 C 605.9705200195312 318.9766540527344 605.953857421875 318.95001220703125 605.9405517578125 318.9100036621094 C 605.9271850585938 318.8699951171875 605.9138793945312 318.836669921875 605.9005737304688 318.80999755859375 C 605.8938598632812 318.7900085449219 605.88720703125 318.74334716796875 605.8805541992188 318.6700134277344 C 605.8739013671875 318.5966796875 605.8671875 318.53668212890625 605.8605346679688 318.489990234375 C 605.8472290039062 318.4433288574219 605.8372192382812 318.36334228515625 605.83056640625 318.25 C 605.8238525390625 318.13665771484375 605.820556640625 318.0400085449219 605.820556640625 317.9599914550781 C 605.820556640625 317.8800048828125 605.8171997070312 317.73333740234375 605.810546875 317.5199890136719 C 605.8038940429688 317.29998779296875 605.7872314453125 317.1433410644531 605.7605590820312 317.04998779296875 C 605.73388671875 316.95001220703125 605.6972045898438 316.836669921875 605.6505737304688 316.7099914550781 C 605.570556640625 316.4566650390625 605.310546875 316.3299865722656 604.8705444335938 316.3299865722656 C 604.4305419921875 316.3299865722656 604.1072387695312 316.4333190917969 603.9005737304688 316.6400146484375 C 603.8538818359375 316.6866760253906 603.800537109375 317.20001220703125 603.7405395507812 318.17999267578125 C 603.6871948242188 319.1533203125 603.6605224609375 319.913330078125 603.6605224609375 320.4599914550781 L 603.6605224609375 322.5899963378906 C 603.6605224609375 323.2966613769531 603.6838989257812 323.7466735839844 603.7305297851562 323.94000244140625 C 603.7772216796875 324.1266784667969 603.8272094726562 324.3166809082031 603.8805541992188 324.510009765625 C 603.973876953125 324.8766784667969 604.2205200195312 325.086669921875 604.6205444335938 325.1400146484375 C 605.0205688476562 325.1400146484375 605.3238525390625 325.0400085449219 605.530517578125 324.8399963378906 C 605.7371826171875 324.6400146484375 605.8605346679688 324.413330078125 605.9005737304688 324.1600036621094 C 605.9405517578125 323.913330078125 605.9871826171875 323.5466613769531 606.04052734375 323.05999755859375 C 606.0872192382812 322.5733337402344 606.1405639648438 322.1766662597656 606.2005615234375 321.8699951171875 C 606.54052734375 321.9166564941406 606.8705444335938 321.94000244140625 607.1905517578125 321.94000244140625 L 608.320556640625 321.9200134277344 C 608.9271850585938 321.9200134277344 609.4138793945312 321.9666748046875 609.780517578125 322.05999755859375 C 609.7938842773438 322.11334228515625 609.810546875 322.1833190917969 609.83056640625 322.2699890136719 C 609.8438720703125 322.3566589355469 609.8671875 322.42333984375 609.9005737304688 322.4700012207031 L 610.2605590820312 322.5400085449219 C 610.4871826171875 323.1666564941406 610.6005249023438 323.8066711425781 610.6005249023438 324.4599914550781 C 610.6005249023438 326.1600036621094 610.030517578125 327.51666259765625 608.8905639648438 328.5299987792969 C 607.7572021484375 329.54998779296875 606.2872314453125 330.05999755859375 604.4805297851562 330.05999755859375 C 603.1805419921875 330.05999755859375 602.0138549804688 329.70001220703125 600.9805297851562 328.9800109863281 C 599.953857421875 328.260009765625 599.3739013671875 327.29998779296875 599.2405395507812 326.1000061035156 C 599.1605224609375 324.5 599.1205444335938 323.086669921875 599.1205444335938 321.8599853515625 C 599.1205444335938 320.6333312988281 599.13720703125 318.7266540527344 599.1705322265625 316.1400146484375 M 608.3605346679688 322.1600036621094 L 607.0905151367188 322.17999267578125 C 606.917236328125 322.17999267578125 606.6871948242188 322.1666564941406 606.4005737304688 322.1400146484375 C 606.3338623046875 322.3599853515625 606.2838745117188 322.7033386230469 606.2505493164062 323.1700134277344 C 606.2172241210938 323.6300048828125 606.1771850585938 323.9966735839844 606.1305541992188 324.2699890136719 C 606.0838623046875 324.5433349609375 605.9338989257812 324.7966613769531 605.6805419921875 325.0299987792969 C 605.4205322265625 325.2633361816406 605.0738525390625 325.3800048828125 604.6405639648438 325.3800048828125 C 604.2138671875 325.3800048828125 603.8739013671875 325.25 603.6205444335938 324.989990234375 C 603.3739013671875 324.7366638183594 603.203857421875 324.3466796875 603.1105346679688 323.82000732421875 C 602.98388671875 323.11334228515625 602.9205322265625 322.1433410644531 602.9205322265625 320.9100036621094 C 602.9205322265625 319.6766662597656 602.94384765625 318.6866760253906 602.9905395507812 317.94000244140625 C 603.070556640625 316.739990234375 603.1572265625 316.0899963378906 603.2505493164062 315.989990234375 C 603.5105590820312 315.7366638183594 603.8739013671875 315.6099853515625 604.3405151367188 315.6099853515625 C 604.8139038085938 315.6099853515625 605.1538696289062 315.67333984375 605.3605346679688 315.79998779296875 C 605.5738525390625 315.9266662597656 605.723876953125 316.1233215332031 605.810546875 316.3900146484375 C 605.897216796875 316.6499938964844 605.9572143554688 316.89666748046875 605.9905395507812 317.1300048828125 C 606.0238647460938 317.36334228515625 606.0472412109375 317.65667724609375 606.060546875 318.010009765625 C 606.0738525390625 318.36334228515625 606.0972290039062 318.6266784667969 606.1305541992188 318.79998779296875 C 606.8372192382812 318.9599914550781 607.4805297851562 319.0400085449219 608.060546875 319.0400085449219 C 608.647216796875 319.0400085449219 609.1738891601562 318.99334716796875 609.6405639648438 318.8999938964844 C 609.8472290039062 318.3399963378906 609.9505615234375 317.7466735839844 609.9505615234375 317.1199951171875 C 609.9505615234375 315.6000061035156 609.3605346679688 314.2966613769531 608.1805419921875 313.2099914550781 C 607.0072021484375 312.1233215332031 605.63720703125 311.5799865722656 604.070556640625 311.5799865722656 C 601.83056640625 311.5799865722656 600.3671875 312.5533447265625 599.6805419921875 314.5 C 599.4871826171875 314.9666748046875 599.3905639648438 315.3399963378906 599.3905639648438 315.6199951171875 C 599.3905639648438 315.8999938964844 599.397216796875 316.0633239746094 599.4105224609375 316.1099853515625 C 599.377197265625 318.7033386230469 599.3605346679688 320.61334228515625 599.3605346679688 321.8399963378906 C 599.3605346679688 323.05999755859375 599.4005737304688 324.4700012207031 599.4805297851562 326.07000732421875 C 599.58056640625 327.15667724609375 600.070556640625 327.97332763671875 600.9505615234375 328.5199890136719 C 601.83056640625 329.0666809082031 602.8472290039062 329.3399963378906 604.0005493164062 329.3399963378906 C 605.7072143554688 329.3399963378906 607.1138916015625 328.8500061035156 608.2205200195312 327.8699951171875 C 609.3272094726562 326.89666748046875 609.8805541992188 325.6000061035156 609.8805541992188 323.9800109863281 C 609.8805541992188 323.3733215332031 609.79052734375 322.8066711425781 609.6105346679688 322.2799987792969 C 609.310546875 322.20001220703125 608.8938598632812 322.1600036621094 608.3605346679688 322.1600036621094 Z" transform="matrix(2.9538259506225586, 0.022526683285832405, -0.022526683285832405, 2.9538259506225586, -1107.6611328125, -639.0692138671875)" style="fill: rgb(51, 51, 51); white-space: pre; color: rgb(51, 51, 51);"/><g transform="matrix(0.7274794578552246, 0, 0, 0.7274794578552246, 138.87634654963074, 181.222713414957)"><g id="g-1" transform="matrix(1, 0, 0, 1, -43, 0)">
	<path class="st1" d="M472.3,136.1c-3.7-0.4-7-1.5-10.2-3.3c0.6-2.1-2.1-2.5-2.3-4.3c-1.9,0.6-1.9-1.5-3.1-2.1&#10;&#9;&#9;c-2.5,0.6-3.2-3.7-5.9-2.2c-5.7,0.7-5.7-6.6-10.7-7.4c-5-3.1-9-8.3-13.5-12.4c-1.5-1.6-1-4.1-2.9-5.6c-3.3-0.6-2.1-4.9-4.6-6.5&#10;&#9;&#9;c-2.4-1.4-3.4-4-5.3-5.9c-3.6-1.3-6.8-3.7-9.9-6.3c3.5-4.1,6.5-8.5,9.3-12.8c0.8,0.6,2.3,0.2,3.1,0.3c3.4-2,2.1-5.9,2.6-9.3&#10;&#9;&#9;c3.4-8.4,1.7-18.8-5.1-25.1c-3.2-2.5-6.5-4.6-10.2-5.9c-10.1-2.8-20.8,0.3-27.3,8.5c-6.1,7-6.2,16.5-6.5,26c-1.4,0.6-2.9-0.4-4.2-1&#10;&#9;&#9;c-0.9-1-1.3-2.3-2.6-3.1c-5-1.2-9.2-4.2-13.9-6c-5.8-3.4-13.3-2.8-19.5-5.3c-7-0.8-12.3-5.4-18.6-7.9c-2.7-0.7-5.2-1.8-8.1-2&#10;&#9;&#9;c-3.6,1.1-7.9,2.7-9.3,6.8c-2.1,4.3,0.5,8.5,0.8,12.7c0.1,1.8,0.7,3.7-1,5c-0.8,1.2-0.4,3.2,0.3,4.3c1.7,0.6,0.7,2.3,1,3.4&#10;&#9;&#9;c-0.1,2.5-3.6,1-5.3,1.2c-0.6,1.5-1.4,3-1.2,4.8c0.3,2.6,3.4,0.3,5,1.4c0.5,0.7,0.2,1.9,0.3,2.8c0.4,0.9,1.1,1.4,1.9,2&#10;&#9;&#9;c2.5-1.2,3.5,2.2,6.2,1.1c0.5,1,1.7,1.6,3,1.5c1.9-1.7,2.6,1.5,5,0.6c1.5-1,2.3-2.6,3.2-4.2c1.6,0.1,2.8,0.6,4.3,0&#10;&#9;&#9;c0.6,0.7,1.9,0.4,2,1.5l4.5,0.3l0.5-0.6c2.4,0.3,4.8,0.6,7.2,1c1.5,3.4,3.9,6.5,4.5,10.3c-2.3,4.8-2.8,10.3-5,15.2&#10;&#9;&#9;c0.2,1.4-0.8,2.4-0.9,3.7c0.3,1.2,0.7,2.3,1.9,3c-1.9,0.5-0.3,3.2-2.6,3.1c0.4,1.4-1.2,1.7-1.7,2.6c-0.8,2.4-3,3.5-4.4,5.9&#10;&#9;&#9;c0.5,2.4-3.2,2.8-2.9,5.1c-3.4,0.1-7,0.3-10.1,1.5c-7.3,4.9-11.5,12.8-10.5,21.8c0.3,4.7-4.6,6.9-5.7,11c0.1,1-0.1,2.3-0.5,3.4&#10;&#9;&#9;c-3,2.5-3.6,5.9-4.6,9.3c-1.4,1.2-1,3.2-0.6,4.6c-2.6,5.7-3.7,11.9-5,18.3c-7.5,2.2-14,6.8-20.5,11.6c-3.2,3.4-5,7.5-4.8,12.4&#10;&#9;&#9;c0.6,1.5,1.4,3,3.1,3.7c2.8,1.1,5-1,7.3-2.3c1.9-1,3.7-2.8,5.7-3.2c-4.1,5.7-7.6,11.6-10.4,17.8c-1.6,2.1,0.7,3.7,1.9,5.1&#10;&#9;&#9;c-0.9,1.1-2.1,2.1-2.1,3.5c-3.7,6.4-5.8,13.4-8.8,20c-0.8,1-1.8,2.4-1.4,3.9c-6.5,18.8-13.3,38.6-9.6,60.5&#10;&#9;&#9;c1.4,5.8,7.4,10.8,13.2,11.6c7.8,2.1,13.7-2.3,19.4-6.3c15-14.8,22.3-33.4,29.1-51.9l5.3-4.2c2.1-0.7,3.7-2.8,5.9-3.5&#10;&#9;&#9;c5.4,1.2,10.5,3.3,15.8,4.6h2.5c1.3-2.5,4.3-1.5,6.2-2.6c2.8,1.4,6.1,1.4,8.4,3.9c4.1,1.9,7.7,4.8,11.9,6.4&#10;&#9;&#9;c0.1-0.5,0.6-0.2,0.9-0.5c-0.9-2,1.6-2.5,1.4-4.5c4.2,0.5,8.1-0.6,11.2-3.3c21.4-19,30.8-44.6,39.5-69.8&#10;&#9;&#9;c4.4-16.8,10.1-33.7,7.5-52.6c-1.7-6.9-6.1-14.9-14.1-15.8v-6.2c0.4-3.8,4.5-6.4,7.1-9c1.7-2.6,4.6-4,7.4-4.5c-1,1-2.8,1-3.7,2.1&#10;&#9;&#9;l1.4,1.4c2.4,2.8,6.5,2.6,9.6,4.3c2,4,6.8,2.8,10.7,3.3c2.2,1.9,5.5,1.7,7.3,4.3c1,0.3,2.5,0.4,2.9-0.9c2.8,1,5.9,0.1,8.5-0.6&#10;&#9;&#9;c1.2-0.5,1.5-2,2-3.1c2.5,0.9,5.1,1.4,7.7,1.9c1.3,0.8,2.5,1.7,4.1,1.9c0.9-0.1,1.6-1.1,1.5-2.1&#10;&#9;&#9;C473.7,137.5,473.4,136.4,472.3,136.1z M294,72.6h-3.9c-0.4-0.4-0.1-1,0.3-1.1l3.6,0.3V72.6z M452.4,125.6c1.2,0.5,1.4,1.7,2.5,2.5&#10;&#9;&#9;c0.5-0.1,0.8-0.5,1.4-0.3c0.8,0.8,0.2,2.4,1.7,2.6l1.5,0.1l-0.1,1.3c-2.6-1.2-5.2-2-7.6-3.6c-0.1-0.9-0.4-2-1.2-2.3l-1.1-0.1&#10;&#9;&#9;C450.5,125.9,451.4,124.7,452.4,125.6z M446.8,125.8c1.5,0.4,3.4,0.5,4.1,1.7c-1.3-0.6-2.7-1.3-4.1-1.2V125.8z M441.7,118.4&#10;&#9;&#9;c1.3,0.3,1.2,1.9,2.2,2.5l2.6,2.8c-1.9,0.7-3.9-0.7-5.7-1.1c-1.2-0.5-2.5-0.8-3.5-1.5c0.6-0.8,1.7-1.5,2.8-1.9&#10;&#9;&#9;c0.1-0.4-0.1-0.6-0.5-0.8l-1.9,0.6C438.8,118.4,440.4,117.7,441.7,118.4z M435.7,120.2l1.5-1C437.1,119.3,436.2,120.3,435.7,120.2z&#10;&#9;&#9; M414.6,88.4c0.2,0.3,0.4,0.5,0.3,0.9c-1.9,0.3-4.3-0.7-5.4,1.1c1,0.9,2.6,0.2,3.7,0.6l3.4,1.4c-4.3,1-8.3,2.8-12.1,5.1&#10;&#9;&#9;c-2.3,1.5-3.7-1.7-5.9-2c-4.9-2.6-10.1-4.4-15.5-5.5c-0.6-0.8-1.5-1.5-1.7-2.5c3.8-1.5,7.5,0.2,11.3,0.2c1.9-0.9,4.8-2.6,4.6-5.2&#10;&#9;&#9;c1.4-0.5,1.7-3,3.4-2.1l2.8,2.6C406.8,86,411.1,86.2,414.6,88.4z M402.4,184.9c-3.2,20.1-10.5,38.6-19.5,56.3&#10;&#9;&#9;c-5.1,8.6-11,18.8-19,25.5c-1.5,1-3.4,1.4-5.3,1c-4.5-2.3-4.7-7.8-4.6-12.7c0.6-14.5,3.4-28,9.6-40.1c1,0.5-0.7,1.5,0.3,1.5&#10;&#9;&#9;c-6.3,12.8-9.7,27.2-8.4,42.8c0.5,2.4,1.8,5.4,4.5,6c5.3,1,7.9-4.4,11.2-7.5c8.8-11.4,15.2-23.9,20.5-36.8c2.8-5,4.2-10.6,5.9-16.1&#10;&#9;&#9;c1.7-6.8,3.5-13.4,4.3-20.6c0.6-1,0.2-1.8,0.3-3c1-1.5,0.1-3.8,0.8-5.4c-0.1-3.9,0.7-8.7-3.4-11c-1.4-1-3.3-1.1-5-0.8&#10;&#9;&#9;c-4.1,1.9-7.2,6.3-10.4,9.7c-4,5.4-7.6,11.2-10.5,16.7h-0.3c0.4-0.4,0.6-0.9,0.5-1.5h0.1c4.8-9.4,10.4-19.6,19.7-25.9&#10;&#9;&#9;c1.9-1.2,4.8-0.9,6.8,0.3C405.7,169.7,403,177.4,402.4,184.9z M402.4,145.4c0.6-1.7,1.9-3.2,2.9-4.5v4.3L402.4,145.4z M358.4,284.1&#10;&#9;&#9;c-0.2,0-0.4,0.1-0.5-0.1c0-0.3,0.4-0.7,0.6-0.3C358.5,283.8,358.6,284,358.4,284.1z M346,227c0.3,0.4,0.1,1.1,0.2,1.6&#10;&#9;&#9;c0,0.1,0.1,0.2,0.1,0.2c0-0.1-0.1-0.2-0.1-0.2c-1.7-3.7,0.3-7.8,0.7-11.5c1.6-6.2,3-12.5,4.8-18.6l0.5-0.3&#10;&#9;&#9;C350.1,207.8,347.6,217.2,346,227z M350.2,238.3l-0.2,1l-0.1-0.1l0.1-0.9H350.2z M304.3,260.3c-2.3,1.4-4.7,2.9-7.2,3.9&#10;&#9;&#9;c6.1-2.8,12-7,16.4-12.4l-0.3-0.3c-6.8,6.1-14.4,10.1-23.2,11.3c-1.5-0.6-2.7,0.1-4.2-0.3c-0.1-0.3,0.2-0.5,0.3-0.6&#10;&#9;&#9;c0.8,1.1,1.2-1.2,1.9,0.3c11.7-1.3,20.2-10.5,28.3-19.4c15.2-17.5,26.4-37.2,37.5-56.5c0.8-2.2,2.1-4.2,3.1-6.3&#10;&#9;&#9;c-0.9,3.9-2.5,7.5-3.4,11.5c-10.2,17.9-21.9,35.5-34.2,52.5l0.3,0.3c7.4-7.8,13-16.9,19-25.5c4.7-6.9,8.6-14.1,12.8-21.2l-0.9,3&#10;&#9;&#9;C337.7,221.4,325.3,244.2,304.3,260.3z M325.7,241.8l-1.3-0.3c-0.1-0.3,0.4-0.9,0.8-1.2L325.7,241.8z M287.3,255.9l1.9-1.8&#10;&#9;&#9;c-1.8,1.7-1.5,4.4-2.6,6.5C287,259.5,287.6,257.5,287.3,255.9z M325.9,193.2c-4.7,1-9,4.1-13.5,5.9c4.9-4.3,11.5-5.2,16.9-8.5&#10;&#9;&#9;c3.1,3.9,5.6,8.3,8.3,12.1c-3.2-3.2-4.7-7.2-8-10.1l-3.4,1.7c3.1,3.2,6.5,6.4,9.9,9.5c-3.7-2.7-6.6-6.2-10.3-8.7&#10;&#9;&#9;c-5,2.3-10.2,3.8-15,6.2l0.3-0.6c4.5-2.8,9.9-4.3,14.4-6.5c1.3-0.8,2.8-1,4.2-1.7C328.5,192,327,193.2,325.9,193.2z M359.5,134.4&#10;&#9;&#9;c-3.4,1.2-6.4,4.1-9,6.5c3.6-4.3,8.1-7.4,13-8.8c-0.1,2.3,0.3,5.5,0.2,7.5l1,0.8c0.1,1.9-0.8,4.6,0.8,6v6.2&#10;&#9;&#9;c-4.9,5-9.9,11-17.3,10.5c-1.8-0.5-2.1-2.3-2.3-3.9c1.7-9.2,5.9-17.8,13.9-23.8C360.2,135,359.7,134.6,359.5,134.4z M338.1,55.7&#10;&#9;&#9;c1.7-0.3,3.7-0.6,5.5-0.3c-0.6,4.3,1.2,7.9,4,10.8c1.3,3.4,1.9,7.2,3.1,10.6c0.3,0.1,0.5-0.2,0.6-0.3c0.3-6.1-0.5-12-4.6-16.5&#10;&#9;&#9;c-0.6-1.2-0.6-2.6-0.6-4.1c5.8,1,10.8,4.7,15,8.8c0.9,1.5-0.3,3.3-0.6,4.8c-1.8,4.1-5.4,7.5-6.4,11.9c-6.7-2.5-14-3.8-21-5.6&#10;&#9;&#9;c-0.4-3.7-2.5-7.4-6.2-8.6c-0.8-0.8-1.7-1.4-1.1-2.6c1-4.1,5.5-7.1,9.3-8.2l0.8,0.3c2.8,6.3,4.3,13.3,7.1,19.6&#10;&#9;&#9;c0.3,0.1,0.5-0.1,0.6-0.3C340.1,70,341.2,62,338.1,55.7z M359.5,86.1c-8.7-2.9-17.4-5.8-26.6-7.5l-6.1-1.5l-0.3-1&#10;&#9;&#9;C337.9,78.5,349.9,79.1,359.5,86.1z M338.9,81.1C349.8,83.3,360,87.4,370,92c-1.1,0.2-3-1-4.5-1.4c-8.4-4.6-17.9-6.9-27.1-9.3&#10;&#9;&#9;L338.9,81.1z M381.6,80.9c-1.9-0.8-1.8-2.9-2.6-4.5L381.6,80.9z M377.1,67.5c1.3-3,1.2-6.5,2.5-9.5&#10;&#9;&#9;C378.8,61.2,378.5,64.5,377.1,67.5z M379.7,89.8c-3.6-0.3-8.7,3.5-12.2-0.3c3.8,0.3,7-1.7,11-1.7L379.7,89.8z M368,93.1&#10;&#9;&#9;c-0.3,0.8-1.2,1.2-1.7,1.8l-6.8-5.2C362.4,90.6,365.2,91.8,368,93.1z M338.9,82.7V83c12.1,10.1,11.4,26.7,22.3,37.6&#10;&#9;&#9;c0.6-0.4,0.2-1.1,0-1.5c-7.5-10.8-7.2-24.8-16.6-34.8c7.5,1.6,14.8,6,20.8,11.7c-2.8,3.4-2.4,9-0.6,12.7c1,1.7,0.6,4,1,6.1&#10;&#9;&#9;c-5.7-7.4-8.7-15.8-14.6-23.1c-0.2-0.1-0.7,0.1-0.8,0.5c3.4,6.6,7.2,13,9.2,20.1c1.9,5.7,6.9,10.5,5.7,17&#10;&#9;&#9;c-5.4-6.3-9.7-13.4-13.4-20.6h-0.1v1.4c2.1,7.7,4.1,15.7,8.6,22.1c-0.1,0.4-0.6,0.4-0.9,0.1c-5-4.8-7.4-10.9-11.2-16.4&#10;&#9;&#9;c-5.5-7.7-3.7-18.5-8.1-26.6l-3.1-6.3C337.7,82.9,338.3,82.2,338.9,82.7z M366.1,131.3c2.3-2.4,7-2.1,8.8,0.6&#10;&#9;&#9;c2.5,1,4.8,2.8,7.3,3.9l-2.5,3.5c-1.1-0.4-2.1-1-3.1-1.7c-0.5-1,0.8-3.3-0.8-3.4c-0.4,0.8-0.5,1.7-0.5,2.8&#10;&#9;&#9;c-0.4-2.1-2.6-2.3-4.2-2.9c-2-0.3-3.7,0.3-5.2,1.2C366,134,366.5,132.6,366.1,131.3z M367.4,118.4c-0.1-0.4-0.1-0.9,0-1.3l-0.1-4.1&#10;&#9;&#9;c0.5,1.2,0.2,2.7,0.1,4.1L367.4,118.4z M366.9,128.4l0.3-9.6C367.4,121.8,367,125.3,366.9,128.4z M381,115.2&#10;&#9;&#9;c-0.3,0.9-0.7,1.7-0.8,2.8c0-0.2,0.1-0.5-0.1-0.6c-0.5,1-1.4-0.4-2.2-0.6c0.8-0.8,2.3-1.5,2.5-2.6C381,114.1,381.4,114.7,381,115.2&#10;&#9;&#9;z M380.5,109c0.2,0,0.4-0.1,0.5,0.1v0.5L380.5,109z M382.3,116.1l-0.5,0.3l0.3-0.9C382.4,115.5,382.2,115.9,382.3,116.1z&#10;&#9;&#9; M382.1,117.1c0.8,0.5-0.1,1.3,0.3,2c0.4,0.6,0.5,1.5,0.5,2.1c-0.5-0.5-0.3-1.7-1.2-1.8l0.3,2.6c-1.3-0.9-0.7-2.8-0.6-4.1&#10;&#9;&#9;L382.1,117.1z M384.7,117.1c1.5,1-0.8,1.5-0.9,2.5h-0.3C383.7,118.6,385.1,118,384.7,117.1z M386.3,118c-1-1.1-0.6-2.6-0.9-4&#10;&#9;&#9;l1.8-1.9c0.3,0.4,0.1,0.9,0.2,1.4c-0.8,0-1.3,0.9-1.7,1.4c0,0.2,0,0.4,0.2,0.5c0.5-0.2,0.8-0.9,1.4-1.1c0.6,0.6,0.2,1.7,0.6,2.5&#10;&#9;&#9;L386.3,118z M387.9,117.5c0.2,0.1,0.2,0.3,0.2,0.5c-0.6,0.2-1,0.8-1.5,1.1C386.5,118.2,387.5,118,387.9,117.5z M385.9,119.7&#10;&#9;&#9;c0.4,0.8-0.8,1.3-1.2,1.9c-0.1,0.1-0.2-0.1-0.3-0.1L385.9,119.7z M384.3,120.4h-0.3l1.4-1.7C385.5,119.5,384.5,119.8,384.3,120.4z&#10;&#9;&#9; M385.2,113.2c0.6-1.3,1.7-1.7,2.5-2.8C387.2,111.5,385.9,112.4,385.2,113.2z M388.5,127.9v0.5c-2.3-1-5-2.6-6.1-5.3&#10;&#9;&#9;C384.2,125.2,386,127,388.5,127.9z M388.9,141.1l0.6,0.8l-0.8,0.6C388.9,141.9,388.2,141.4,388.9,141.1z M390.9,144l1.1-0.5&#10;&#9;&#9;c-0.1,0.4-0.4,0.8-0.8,0.9c-0.3-0.1-0.5-0.2-0.8-0.1c-0.4,0.6,0.5,1.2,0.9,1.2c-0.3,1-1.6,2-0.5,3c-2-1.2,0.6-2.6-0.9-4.1l-1.5,1.3&#10;&#9;&#9;c0-0.4-0.2-0.7-0.5-1c-0.7-0.3-1.1,0.6-1.4,1c0.6,1.2-2,2.1-0.2,2.9c0.8-0.6,2.1-1.5,3-0.5c0.2,1.1-1.6,2.7-0.3,3.5&#10;&#9;&#9;c-0.7,0.5-0.8,1.2-0.9,1.9c0.3,0.5,1.3,0.3,1.2,1.1c-0.3,0.6-0.6,0.7-1.1,1.2c-0.2-0.4-0.2-0.9-0.6-1.2c-0.8,0.1-1.3,0.7-1.5,1.4&#10;&#9;&#9;c-0.3,0.6-0.2,1.4,0.5,1.7l-7.9,9.9c-0.4-0.3-1.1-0.8-1.5-0.1c-2.4,0.4-0.3-3.4-2.6-2.3l-0.8,0.9c-0.6-1-0.3-2.5-0.3-3.7&#10;&#9;&#9;c0.2,0.1,0.3-0.2,0.5-0.3c-0.8-0.8-0.5-2.6-0.3-3.9c0.2,0.3,0.5,0.1,0.8,0.1c0.8-0.3,0.2-1.1,0.2-1.2c1.5-0.3,1.1,0.9,1.4,1.9&#10;&#9;&#9;c-0.6-0.3-1.5-0.1-1.5,0.6c-0.3,0.6,0.5,1,0.5,1.5c-1.2,0.8-1.2,2.3-1.4,3.4c0.8,0.8,1.5-0.9,2.6-0.6c-0.1,0.9,0.5,1.4,1.2,1.9&#10;&#9;&#9;c1-1.4,3.3-0.5,3.9-2.2c-2,0.9-0.3-2.1-2.3-1.2c-0.5,0.3-0.7,0.8-0.8,1.2c-1.4,0.5-1-1.4-2.2-1.4c0.1-0.8,1.9-1,1.5-2l-1.1-0.1&#10;&#9;&#9;v-0.6c0.8,0.3,1.7,0.2,2.2-0.5c0.4,0.7,1.3,0.8,2.2,0.8c0.2-0.1,0.1-0.3,0.1-0.5c-0.3-0.3-0.5-0.6-0.9-0.5c-0.7-0.8,1-1.2,0.3-2.1&#10;&#9;&#9;c-0.4-0.4-0.8-0.8-1.4-0.8c-1.2,0.5-0.3,2.3-1.4,2.3c-0.4-0.8-1.4-1.7-0.1-2.1c-0.5-1-3,0.1-2.5-1.5c-0.2-0.5-1.4-0.2-0.8-1&#10;&#9;&#9;l4.2-6.8l1.1,0.8c-0.4,0.3-0.5,0.7-0.5,1.2c0.6,0.6,1.4,0.9,2.3,0.8c0.5-0.3,0.4-0.7,0.6-1.1c-0.3-0.4-0.7,0.1-1,0.2&#10;&#9;&#9;c-0.2-1,0.9-1.9,0.6-3.1c-0.2-0.5-0.8-1.2-1.4-0.8c-0.2,0-0.4-0.1-0.5,0.1c1.1-1.4,1-4.2,3.3-4.3c-0.1,0.1,0.1,0.4,0.3,0.3&#10;&#9;&#9;c0.6,0.1,0.8-0.4,1.2-0.6c0-0.2,0-0.4-0.2-0.5h-0.5c0.5-0.2,0.9-0.4,1.4-0.3v0.6c0.3,0.5,1-0.5,1.1,0.3c-0.3,0.5-1-0.4-1.3,0.5&#10;&#9;&#9;c-0.1,0.5,0.1,1.1,0.6,1.2c0.2-0.1,0.5-0.1,0.6-0.3c-0.2,0.5-0.4,1.4,0.1,1.9c0.5-1.7,2.3,0.9,2.3-1.1&#10;&#9;&#9;C388.8,144.3,390.2,142.9,390.9,144z M390.5,151.1c-0.1,0.1-0.1,0.1-0.2,0.1C390.4,151.2,390.4,151.2,390.5,151.1&#10;&#9;&#9;c0.3-0.3-0.3-0.7-0.4-1.1c0.4-0.1,0.8-0.2,0.9-0.5c0-0.2,0-0.4,0-0.6c0.1,0.3,0.1,0.4,0,0.6C391.1,150.1,391.1,150.7,390.5,151.1z&#10;&#9;&#9; M375.4,172.3c-1.8,0.2-1.2-1.9-1.1-2.9c0.8,0.4,0.8,1.5,1.7,1.4l1.2-1.2C377,170.6,375.9,171.3,375.4,172.3z M377.1,171.1L376,173&#10;&#9;&#9;l-0.1-0.1l1.1-1.9L377.1,171.1z M374.3,168.3v-0.6h0.2v0.6H374.3z M371.1,141.8c-1,0.7-2.7-0.2-3.9,0.8l0.3-6.8&#10;&#9;&#9;c1.8-0.8,5.3-1.3,6.3,1.1c-0.3,2.5,0,5.4-0.3,7.9C373.3,143.4,371.5,142.9,371.1,141.8z M372.5,164.9c-0.6-6.1,0.5-12.4,0.3-18.7&#10;&#9;&#9;C373.2,152.2,372.5,158.5,372.5,164.9z M372,144c-0.1,6.8-0.3,13.4-0.5,20.3h-0.5c-0.4-7.1,0.1-13.8,0.3-20.6L372,144z&#10;&#9;&#9; M370.1,163.8l-0.3,0.3c-0.1-7,0.2-13.9,0.3-20.9h0.5C370.3,150.2,370.8,156.8,370.1,163.8z M367.7,144.3l0.3-0.8&#10;&#9;&#9;c0,6.6,0.1,14-0.6,20.8C367,157.9,368.1,150.8,367.7,144.3z M381.7,137.8c-2,4.9-4.4,9.6-8,13.8&#10;&#9;&#9;C375.1,146.4,378.9,142.3,381.7,137.8z M380.8,133.3c0.5-1.5,1.4-3.6,2.2-5.4l0.3,0.3C382.6,130,382,131.7,380.8,133.3z&#10;&#9;&#9; M385.2,137.7h0.2v0.6C385.3,138.2,384.8,137.8,385.2,137.7z M379.7,111.7c-1.3,4.1-6.1,5.1-7.5,9c-0.3,0.6-1,1.5-0.3,2.1&#10;&#9;&#9;c0.6,0.2,1,1,1.9,0.8c0.3-0.7-1-2,0.3-2.6c0.5,2.8-0.1,5.4-0.1,8.3c-1.4-1.2-3.5-0.8-5.4-0.9l0.6-13.8c2.3,1.9,4.9-0.1,7-1.2&#10;&#9;&#9;c1.5-1,2.6-3,3.7-3.7C380.9,110,379.6,110.9,379.7,111.7z M375.9,123.7v4.3l-0.8-0.1l0.2-4.6L375.9,123.7z M366.8,157.1&#10;&#9;&#9;c-0.1-0.7,0-1.4,0-2.1c0-1.4,0-2.9,0.1-4.2c0.1,1.5-0.1,2.8-0.1,4.2C366.8,155.8,366.8,156.5,366.8,157.1z M366.8,138.9l-0.2,4.8&#10;&#9;&#9;h-0.1l0.1-4.8H366.8z M366.6,138.4l0.2-1.9v1.7L366.6,138.4z M366.5,204.7l1.1-39.4c1.8-0.9,4.3-0.5,5.4,1.4l0.3,1.2l-0.9,36.6&#10;&#9;&#9;l-0.3,8.2l-1.7-1.7c0.5,0,1-0.4,1.2-0.9c-0.4-1,0.7-1.6,0.1-2.5c-0.8-0.3-1-1.7-2.1-1.1c-0.6,1.2-2.5,2.1-1.7,3.7l-1.7,0.5&#10;&#9;&#9;c0.7-1.1,1.6-2.5,0.8-3.7c-0.8,0.5-0.4,1.6-0.9,2.3c-0.3,0.5-0.8,1.2-1.4,1.1c0.9-0.6,1.4-1.5,1.4-2.6c0-0.7-0.3-1.3-0.2-2&#10;&#9;&#9;C366.1,206.1,366.3,205.3,366.5,204.7z M396.6,202.7c1,1.5-1.4,1-1.7,2.3c-0.5,1-0.9,1.5-2.1,1.1c-2.2-1.5-4.5-1-6.6-2.5&#10;&#9;&#9;c1.1-2,2.3-3.9,2-6.5c0.8-3.4,2.5-6.5,5.1-9.1c1.4-3.7,4.6-7.1,3-11.3c0.3-0.7,1-1.6,1.7-2.2c0.5,2.5,0.3,5.7,0.1,8.4&#10;&#9;&#9;c-0.5,0-0.9,0.5-0.9,0.9C397.2,190.4,396.7,195.8,396.6,202.7z M389.7,214c-1.5,0.1-0.8,1.9-1.4,2.8l-1.1,1.9&#10;&#9;&#9;c0.9-1.4,1.2-3,1.7-4.6l-0.5-0.5c-1.7,1.1-1.2,3.4-2.5,4.8c0.4-1.7,1.9-3.4,1.1-5.2c-1.5,0.5-0.9,2.6-2,3.7c-0.1-1.5,2.1-3,0.5-4.2&#10;&#9;&#9;c-1.2,1.1-0.9,2.8-2,3.9c0.1-1.5,1.7-3.3,0.5-4.5c-1.4,0-0.5,1.5-0.9,2.1l-1.1,1.9c0.4-0.9,0.7-2.7,1.2-4l-0.5-0.5&#10;&#9;&#9;c-1.1,1-1,2.8-2,4c-0.3-1.9,2.3-3.3,0.8-5c-0.2,0.2-0.3,0.6-0.6,0.5l1.2-4.6c1.3,0.1,0.7-1.3,1.1-2c0.5,0.5-0.4,2.1,0.8,2.2&#10;&#9;&#9;c0.6-0.4,0.1-1.2,0.5-1.7c0.3,0.6,0.1,1.8,0.8,2.1l0.5-1.1c0.6,0.7-0.5,1.5,0.3,2.1c0.8-0.4,0.8-1.4,0.8-2.3c0.8,0.6,0.3,2,1.1,2.6&#10;&#9;&#9;c0.6-0.5,0.2-1.4,0.3-2.1h0.3c0.6,0.9-0.8,2.4,0.6,2.8c0.4-0.6,0.6-1.4,0.5-2.2h0.5c0.1,1-0.3,2.1,0.3,2.8c0.8-0.5,0.5-1.5,0.8-2.3&#10;&#9;&#9;c0.3-0.1,0.3,0.3,0.5,0.3c-0.5,2.6-0.3,5.5-1.5,7.7C390.3,214.8,390,214.3,389.7,214z M389.7,216.5l-0.5,1.5L389,218l0.5-1.5&#10;&#9;&#9;L389.7,216.5z M361.8,202.5c1.1-1.9,1.7-4.2,2.1-6.3C364.2,198.5,362.8,200.6,361.8,202.5z M363.8,207.5l-1.4,0.2V207&#10;&#9;&#9;c0.3,0,0.5,0.3,0.6,0.5l0.5-0.5L363.8,207.5z M356.4,216.4l0.1,0.1l-0.6,1.7l-0.1-0.1L356.4,216.4z M355.9,197.7h0.3v0.8&#10;&#9;&#9;L355.9,197.7z M356.4,194.2v1.1c-0.1-0.2-0.5-0.6-0.3-1c0.3-0.6,1-0.5,1.4-0.3L356.4,194.2z M364.7,166.9v2.3&#10;&#9;&#9;c-2.4,6.3-5.5,12.2-8.6,18.1C358.6,180.4,361.5,173.6,364.7,166.9z M359.9,164.1c-4.9,4.2-10.1,7.5-15.6,10.1l-1.5-0.6&#10;&#9;&#9;c8.5-4.1,16.6-10.7,22.7-18.8C366.3,159.2,362.1,161.1,359.9,164.1z M364.3,184.9v4.3C363.6,187.8,363.5,186.2,364.3,184.9z&#10;&#9;&#9; M364.3,190.9v0.6h-0.1v-0.6H364.3z M363.8,181.8c-0.1-0.5,0-1,0.5-1.2c0.3,0.1,0.3,1,0,1.2H363.8z M363.5,175.9l1.1-2.5v4.1&#10;&#9;&#9;C364.3,177,364.4,175.9,363.5,175.9z M361.9,193.4c0.5-0.1,0.8-0.5,1.2,0c0.2,0.1,0.2,0.3,0.2,0.5l-1.2,0.5&#10;&#9;&#9;C361.8,194.1,362,193.7,361.9,193.4z M362.9,185l-0.2-1.5c0.3,0.1,0.6-0.1,0.8,0.2C363.6,184.2,363.1,184.6,362.9,185z M363,179.5&#10;&#9;&#9;c-0.3,0-0.4-0.3-0.6-0.5c-0.2-0.7,0.3-1.2,0.5-1.7c-0.2,0.6,0.3,0.9,0.6,1.2h0.2C363.7,178.9,363.2,179.1,363,179.5z M359.3,189.7&#10;&#9;&#9;c0,0.2,0.1,0.4,0.3,0.6l-0.5,0.5C358.7,190.4,359.2,190.1,359.3,189.7c0-0.1,0-0.2,0-0.3c0,0,0,0,0-0.1c-0.6-0.5-1.9-1.3-0.8-2.1&#10;&#9;&#9;c1.4,0.1,0.8,1.2,0.8,2.2C359.4,189.5,359.4,189.6,359.3,189.7z M357,191.7l-0.1,0.2c-0.3-0.4-0.6-1-0.3-1.4&#10;&#9;&#9;C357.2,190.4,357.2,191.3,357,191.7z M357.5,198.8v0.5h-0.3v-0.5H357.5z M358.4,210.8h0.1l-1.9,5.3l-0.1-0.1L358.4,210.8z&#10;&#9;&#9; M358.4,197.7v-0.5c0.4,0.3,0.9,0.1,1.2-0.2c0.2,0.1,0.2,0.3,0.2,0.5C359.4,197.4,359,197.9,358.4,197.7z M359.8,207.5l0.1,0.1&#10;&#9;&#9;l-1.2,3l-0.2-0.1L359.8,207.5z M359.5,194.3v-1.5c0.2,0.7,0.1,1.5,0.6,2C359.8,194.8,359.7,194.5,359.5,194.3z M360.4,205.8&#10;&#9;&#9;l0.1,0.1l-0.3,0.6l-0.2-0.1L360.4,205.8z M359.9,184.9l-0.1,0.1c-0.4-0.3-0.6-0.8-0.2-1.2c0.9,0.1,1.9-0.5,1.7,0.9&#10;&#9;&#9;C360.9,184.1,360.3,184.6,359.9,184.9z M361.4,197.4c-0.4-0.2-1-1.7,0.3-1.2c0.1,1.2-0.2,2.6-0.3,3.4h-0.5&#10;&#9;&#9;C361.2,198.9,361.4,198.2,361.4,197.4z M361,190.4c0.3,0,0.5-0.4,0.8-0.6c-0.1-1.2-1.3-2.4,0.1-3.3c-0.5,1,1.7,1.8,0.5,3l0.6,0.9&#10;&#9;&#9;C362.1,189.6,361.3,192.6,361,190.4z M367.8,218c-5,13.5-10.4,29.7-6.2,44.9c0.4,0.5,0.6,1,0.6,1.5c-0.8-0.2-0.9-1.2-1.4-1.8&#10;&#9;&#9;c-3.5-11.5,0.3-23.2,2.8-34.1C365,225,366.3,221.5,367.8,218z M364.5,212l0.3-0.5l0.2,0.1C364.7,211.8,364.6,212,364.5,212z&#10;&#9;&#9; M370,217.7l0.3-0.2c-0.2,6.8-3.8,12.8-5.1,19.4c-2.5,6.8-3.2,14.9-2.3,22.5c0.5,1.4,0.8,2.8,1.5,4.1c-0.3,0.1-0.5,0.4-0.8,0.3&#10;&#9;&#9;C358.1,247.7,364.6,231.7,370,217.7z M369.7,208.9c0.4,0,0.7,0.1,1,0.5C370.2,209.5,369.9,209.1,369.7,208.9z M364.3,259.2&#10;&#9;&#9;c0-0.1,0-0.3,0-0.4c-2.2-11.4,2.6-23.4,5.8-34.3l0.5,1c-3.4,10.5-7.3,21.1-6.2,33.3c0.1,0.5,0.2,1,0.3,1.5l0.5,1.7&#10;&#9;&#9;c-0.2-0.6-0.3-1.1-0.5-1.7L364.3,259.2z M380.2,202.7c-0.5,0.8-1.4,1.4-2.1,2.3c0.1-0.3,0.4-0.6,0.3-1.1c-0.6-0.8-1.5,0.2-1.5,0.8&#10;&#9;&#9;c-0.3,0.8-0.8,1.6-1.4,2.3c1-2.1,2.5-5.5,5.4-6.5l0.5,0.8c0.1,8.3-3.2,15.5-7.3,22.3c-0.8,0.6-1.4,2.1-2.6,1.7l-0.3-0.8&#10;&#9;&#9;c2.2,0.5,2.9-2.1,3.9-3.4c3.5-5.4,5.3-11.5,5.9-18.1C380.6,202.8,380.5,202.6,380.2,202.7z M374.3,206.6c-0.3,0-0.6-0.1-0.8-0.3&#10;&#9;&#9;c1.7-3.8,4-7.4,5.9-11.2c3.3-6,6.4-12,10.8-17.5c-6.1,8.5-10.1,18-15.3,26.8C375.2,205.3,374.6,205.8,374.3,206.6z M371.2,226.4&#10;&#9;&#9;c0.3,0.1,0.5,0.2,0.8,0.1l-2.6,5.2C370,229.8,370.3,228,371.2,226.4z M366.9,239.2c1.6-0.8,1.2-3.1,2.5-4.3c2-3.1,3.2-6.5,5.4-9.4&#10;&#9;&#9;c1.7,0.5,3.9,1.4,5.6,1.8c1.4,0.3,2.6,1.3,4.2,1.3c0.6,0.4,1.4,1.1,2.1,0.6v0.8c-4.8,11.5-11.5,22.3-20.5,31.9&#10;&#9;&#9;c-1-0.1-0.5-1.5-1-2.1C364.1,252.9,365.6,245.8,366.9,239.2z M383,196.5c0.4-2.5,3.1-2.1,4.6-3.1c-0.6,1.7-0.6,3.7-1.9,5.1&#10;&#9;&#9;c-0.7,1-3.4,1-2.3,2.5l2.1-0.3c-0.1,0.9-0.8,1.6-1.5,2.3c-0.5-0.1-1.1-0.8-1.7-0.3c0.1-1.5-1.5-2.6-0.6-4.1&#10;&#9;&#9;c1.3-0.9,4.2,0.2,4.1-2.1C384.8,196.3,384.1,196.7,383,196.5z M385.4,192.8c2.4-5,5.5-9.9,9.3-14.4c-0.1,2.8-1.5,5-2.3,7.6&#10;&#9;&#9;C390.5,188.4,388.8,192.4,385.4,192.8z M379.9,199.7l-2.6,2.2c5.5-10.2,10.6-20.6,19.2-29.6C389.8,181,384.7,190.3,379.9,199.7z&#10;&#9;&#9; M373.4,202.7c0.3-2.1,1.9-4.6,2.9-7c4.1-9.2,10.3-17.5,17-25.4C385.1,180,379.2,191.5,373.4,202.7z M375.9,209.8l-0.3,2.3&#10;&#9;&#9;c-0.3-0.3-0.6,0.1-0.9,0.3c-0.3-0.3-0.8-0.6-1.2-0.3l-0.3,0.3l0.1-5.3C374.4,207.8,375.8,208.2,375.9,209.8z M364.9,204.6h-0.3&#10;&#9;&#9;c0.6-13.2,0.3-25,1.2-37.9C365.7,179.4,365.4,191.6,364.9,204.6z M365.4,132.2l0,0.7c0,1.4,0.3,3.1-0.1,4.1l-0.2,1l0.3-5.1&#10;&#9;&#9;C365.3,132.7,365.3,132.4,365.4,132.2z M336.7,174.8l-2,2.6c2.2-10.9,6.2-21,11.6-30.5l0.1-1l3.7-4.8&#10;&#9;&#9;C343.6,151.5,338.8,162.6,336.7,174.8z M334.8,151.7c0.9,2.3,3.1,4.1,4.2,6.4c-0.3,0.1-0.4,0.6-0.8,0.5c-0.6-1-1.1-2.3-2.3-2.8&#10;&#9;&#9;c-1,1.5,0.5,2.9,0.5,4.5l-1.1,1C334,158.3,335.2,154.8,334.8,151.7z M342.9,150c-3-2.6-6.1-5-8.6-8.1c2.6,3,6,5.5,9.1,8.1H342.9z&#10;&#9;&#9; M340.5,152.4c0.4,0.1,0.6-0.3,0.9-0.5l-2.2-3c-0.1-0.1-0.2-0.2-0.2-0.3l0.2,0.3c1.3,1.4,5.8,2.3,2.5,5c-3.5-2.8-7.5-6.6-8.5-11&#10;&#9;&#9;C334.8,146.4,337.1,149.7,340.5,152.4z M333.3,162.2c-1,1-2.4,1.2-3.4,2.2l2.5-5.4C332.8,159.9,333.8,161,333.3,162.2z M334.3,180&#10;&#9;&#9;c1-2.5,2.8-5.3,5.4-6.5c4.8-0.2,8.1,4.1,11.3,7.4c1.3,1.1,1.2,2.8,2.5,3.9l-0.1,0.1c-3.2-2.5-5.3-6.5-8.8-9&#10;&#9;&#9;c-1.2-1.2-3.2-2.1-4.8-1.5c-4.1,2.1-5.1,6.9-7.2,10.5c-0.9,1.2-1.4,2.8-2.6,4.1C332,186.3,332,182.8,334.3,180z M345.4,195.1&#10;&#9;&#9;c1.3,0.3,2-0.6,3-0.9c-0.5,0.8-0.8,1.7-1.4,2.5c-0.5,0-1.5,0.1-2.1,0.3C345,196.2,344.1,195.2,345.4,195.1z M335.6,190.6&#10;&#9;&#9;c-1.4,0.4-2.8,1.7-4.2,1.2l-0.1-0.5c1.7-0.1,5-4,5.7-0.2c0.5,2.8,2.1,5.2,2.6,7.9c-1.4-2.3-2.3-4.7-3.4-7c-1.4-0.1-2.2,1.3-3.5,1.2&#10;&#9;&#9;v-0.3l3.4-1.5C336.3,191.1,335.9,190.9,335.6,190.6z M339.2,194.8v-0.3l3.9-1.3c-0.1-0.1,0.3-0.9-0.3-1c-1.5,0-2.7,1.2-4.1,1v-0.3&#10;&#9;&#9;l4.5-1.7l0.3,0.3l-0.2,3.1c0.7,1.2,0.5,2.7,0.8,4L343,194C341.8,193.9,340.5,194.9,339.2,194.8z M338.4,176.4&#10;&#9;&#9;c0.1-0.4,1.9-1.7,2.8-1C340.3,175.7,339.4,176,338.4,176.4z M315.4,200.9c1.3-0.3,2.5-1.4,3.9-1c0.4-0.1,1-1.2,1.2-0.3l-0.6,0.5&#10;&#9;&#9;c1.2,0.4,2.2-1.4,3.4-0.3l10.8,6.1h-1.2l-11-5.4c-4,1.2-7.9,2.6-11.9,3.7c2.5-1.4,5.8-2.1,8.3-3.5&#10;&#9;&#9;C317.5,200.6,316.3,200.9,315.4,200.9z M334.3,208.6c-4.6-0.9-9.3-1.7-13.7-3.1c0.1-0.5,0.1-1.3,0.8-1.2&#10;&#9;&#9;C325.6,205.9,329.9,207.1,334.3,208.6z M320,204.6c0.2,0.6-0.3,1.2-1,1.2c-3.3,0.2-7.2,0.9-9.9,0.8&#10;&#9;&#9;C312.5,205.7,316.4,205.2,320,204.6z M320.1,208.4l12.1,4.3c0.8,0.3,1.5,0.6,2.2,0.9c-5.4-0.7-10.1-2.7-15-4.5l-11-0.5&#10;&#9;&#9;C312.1,208.4,316.2,208,320.1,208.4z M317.4,211.2c4.5,1.8,9.2,3.2,13.8,4.8c-5.6-0.3-9.9-3.6-15.4-4.2l-8.4-0.8&#10;&#9;&#9;C310.6,210.6,314.1,211.1,317.4,211.2z M321.2,216.2l7.3,2.5c-4.3-0.1-8.7-1.9-12.7-3.5l-9-1.1l-0.3,0.3l0.1-0.8l0.6,0.5&#10;&#9;&#9;C312.1,214.2,317.2,213.8,321.2,216.2z M315.5,217.7c0.4,0.1-0.3,0.6,0.3,0.8c0.3-0.1,0.1-0.5,0.1-0.6c3.4,0.8,6.6,2.2,9.8,3.4&#10;&#9;&#9;c-6.7-1.6-13-4-20-4.8v-0.1C309,216.8,312.5,216.6,315.5,217.7z M322.6,224c-5.9-0.6-11.4-3.9-17.7-4.6l-0.1-0.5&#10;&#9;&#9;C311.1,219.8,316.8,221.9,322.6,224z M320.3,226.7c-5.8-0.6-10.8-3-16.3-4.5l0.1-0.6C309.6,223.1,314.9,225,320.3,226.7z&#10;&#9;&#9; M314.6,228.7c3.5,0.3,7,1.5,10.1,2.6c-0.4,0.6-0.9-0.4-1.4-0.3l-8.3-2c-1,0.8,0.5,1.6,0.8,2.5c0.8,0.8,2.3,0.4,3.2,1&#10;&#9;&#9;c1.5-0.3,2.8,0.6,4.2,0.9c-0.1,0.1-0.2,0.2-0.2,0.3c-1.9-0.6-4-1.2-6.2-1.4c-0.1,0.3-0.6,0.4-0.5,0.8c1.6,0.6,3.5,0.6,5.1,1.2&#10;&#9;&#9;c0.1,0.3,0.5,0.1,0.6,0.2c-0.1,0.7-0.6,1.2-1.1,1.7c-1.7-0.7-3.5-1.1-5.4-1.4c-1.1,5.7-3.9,10.8-9,15l-6.2,4.6&#10;&#9;&#9;c-1,0.4-1.5-0.6-1.7-1.2c0.3,0,1,0.6,1.7,0.5c1-0.6,1.2-1.7,1.1-2.9c-0.4-0.6-1-0.6-1.7-0.6c-0.6,0.5-1,1.1-1,1.9&#10;&#9;&#9;c0.1-5.9,3-10.6,5.2-15.6C306.7,232.6,310.1,229.3,314.6,228.7z M299.9,251.1c0,0.5-0.1,0.9-0.3,1.2h-0.1&#10;&#9;&#9;C299.2,252,299.4,251.4,299.9,251.1z M297.6,234.7c-0.2-0.4-0.6-0.8-1-1c-0.2,0-0.3-0.1-0.5-0.1c0.2,0,0.3,0.1,0.5,0.1&#10;&#9;&#9;c1.6,0.4,3.1,1.1,4.6,1.7C299.8,236,298.8,234.7,297.6,234.7z M297.7,238c0.3-0.1,0.6,0.1,0.8,0.3c-2.7,5.2-5.6,10.2-8.8,15.2&#10;&#9;&#9;c1.6-3.9,4.2-7.4,5.9-11.3C296.5,240.9,297.4,239.6,297.7,238z M355.7,218.5l-0.3,1.4l-0.1-0.1l0.3-1.4H355.7z M347.9,246.8&#10;&#9;&#9;l-0.2,0.9l-20.4-6c-0.6-0.4-0.9-1.1-1-1.7C333.6,242.2,340.8,244.2,347.9,246.8z M350.6,235.7l0.1,0.1c0-0.1,0-0.1,0.1-0.2&#10;&#9;&#9;c0.9-5,2.4-10,4-14.9c-1.2,4.8-2.3,10.1-4,14.9c0,0.1,0,0.1,0,0.2l0,0c-0.1,0.2-0.2,0.4-0.2,0.7L350.6,235.7z M400.6,182.4h-0.1&#10;&#9;&#9;l0.3-10.3C400.8,175.1,401,179,400.6,182.4z M401,183.9c-0.4,4.1-1.4,7.9-2.2,11.8c0.1-3.9,0.1-8.1,1-11.8H401z M389.5,115.7&#10;&#9;&#9;c-0.1-2.1-0.6-4.2,0.5-6.1c1.2-1.6,3.2-2.7,5.2-3.1c2.9,0,5.4,0.9,7.6,2.3l2,3.1c-3.4-3.5-8.4-4.9-13-3.5c-0.2,0.4-0.8,0.5-0.6,1.1&#10;&#9;&#9;c0.8,1,0.9-0.5,1.7-0.5c4.5-0.5,8.7,0.8,11.5,4.5c0.3,1,0.8,1.9,0.9,3c-3.6,1.8-7.2,3.7-10.5,6.2&#10;&#9;&#9;C392.3,121.3,389.8,118.6,389.5,115.7z M405,108.7c-3.1-2.8-7.5-3.9-11.6-3c-3.7,0.5-6.3,3.6-9.3,5.9c-1.9-0.4-0.6-3-2.5-3.7&#10;&#9;&#9;c-1-0.1-1.9-0.5-2.8,0.3v0.9c-1.6,1.9-3.5,3.2-5.6,4.3c-4.1-2.6-7.3-6.8-7.7-11.6c-0.6-3.5,2.2-5.9,4.6-7.9&#10;&#9;&#9;c10.5-5.4,21.8-0.4,30.8,4.6l1.7,1.4c4.8,3.6,9.7,8.6,10.3,14.4c-1.7,0.2-3.1,0.8-4.6,1.2C408.5,113.5,407,110.8,405,108.7z&#10;&#9;&#9; M389.8,85.1c2.3,0.2,4.1-0.7,5.9-1.9c-1,0.9-2,2.3-3.4,2.5L389.8,85.1z M402.8,79.1l-0.8-0.2c1.7-3.6,5-6.8,7.4-10.1&#10;&#9;&#9;c0.4,0,0.9-0.7,1.2,0C408.3,72.4,406.4,76.4,402.8,79.1z M418,56.7c-0.4,2.6,0.4,5.6-0.8,8.2c0.3,0.6-0.4,1.3-0.8,1.9&#10;&#9;&#9;c-5.4,0.1-9.9-2.5-14.6-4.4l-1-0.3c-1.2-4.6-2.1-9.4-3.4-13.9c6.4,1.1,12.3,3.6,18.1,6.2c0.8,0.8,2,0.9,2.8,1.8L418,56.7z&#10;&#9;&#9; M391.4,46.9c1.6,4.3,2.5,8.8,3.7,13.2l-0.6-0.1C393.7,55.5,392.4,51.3,391.4,46.9z M392.3,59.3c-0.9-0.9-0.8-2.5-1.3-3.7&#10;&#9;&#9;c-0.1-2.3-0.8-4.4-1.4-6.5C390.8,52.4,391.2,56,392.3,59.3z M393.2,47.2h0.3c1,4.6,2.4,9,3.5,13.5h-0.5&#10;&#9;&#9;C395.3,56.3,394.4,51.7,393.2,47.2z M394.5,47.5c3-0.4,2.5,3.4,3.4,5.3c0.9,2.9,1.4,6.3,2,9l-1.9-0.6&#10;&#9;&#9;C396.8,56.6,395.4,52.2,394.5,47.5z M418.6,48.4c0.8,1.9-0.3,3.9-0.3,5.7c-3.5-1.1-6.8-3.4-10.4-4.6c-3.6-1.4-7.4-2.3-11.2-3.4&#10;&#9;&#9;c1-1.9,1.2-4.1,2.3-6C406.2,41.4,412.6,44.4,418.6,48.4z M407.6,30.5c2.7,3.2,3.6,7,3.5,11.3c-2-0.3-4.1-1.3-6.2-2&#10;&#9;&#9;c-2.3-0.3-4.2-1.8-6.3-2c-0.5-2.1,0.4-4.8-0.1-7.3c-0.4-1.2-1-2.3-1.4-3.5C401,27.2,404.4,28.6,407.6,30.5z M396.2,39.7l1.7,0.1&#10;&#9;&#9;c-0.2,2.1-1,4.3-2,6.2c-0.6-0.1-1.2-0.3-1.7-0.5C394.8,43.5,395.3,41.5,396.2,39.7z M395.2,39.3c-0.5,2-1.4,3.9-2,5.9h-0.5&#10;&#9;&#9;c0.1-1.9,1.5-3.7,1.7-5.9H395.2z M392.9,39h0.5c-1,1.8-1,4.1-2.3,5.7C391.3,42.9,392.5,41,392.9,39z M390.8,38.9h0.1l-0.1,0.8h-0.2&#10;&#9;&#9;L390.8,38.9z M390.1,40.4h0.1l-0.1,0.6L390,41L390.1,40.4z M389.7,41.8l-0.6,2l-0.1,0.2L389.7,41.8z M383.6,64.6&#10;&#9;&#9;c0.5-1.3,1.9-0.6,2.6-0.1c0.8,1.6,2.7,1.4,4,2.3c2.3,0.1,3.7-0.2,5.6-1c1.1-0.3,1.6,0.5,2,1.2c-0.3,1.6,1.6,2.6,2.6,3.4&#10;&#9;&#9;c1.1,0.1,2.8-0.5,3.1,1.1c-0.8,3.6-4.5,5-6.5,7.9c-1.3,1.9-2.6,3-4.5,4.2c-2.1,0.3-4.3-0.2-6-1.4c0.3-0.6,1.3-1,2-0.6&#10;&#9;&#9;c0.8,0.9,2.2,0.9,3.2,0.6c0.5-0.3,0.4-1,0.2-1.4c-1.2-0.8-2.5-1.2-3.7-1.7c2.1-0.1,4.7,0,6.2,1.5c0.5,0.3,1.2-0.3,1.4-0.8&#10;&#9;&#9;c-1.9-2.2-4.9-2.1-7.3-3.4c-2.6,1.3-2.5-1.5-3.5-2.8c-0.9-0.9-0.2-2.4-0.6-3.4C383.7,68.6,383.2,66.6,383.6,64.6z M381.6,47.1&#10;&#9;&#9;c-1.5,1.2-3.7,2.3-4.6,4.3C377.7,49.7,379.6,48,381.6,47.1z M376.3,68.8l2.3,7.1c-0.8-2.3-2-4.5-2.6-6.8L376.3,68.8z M370.5,73.4&#10;&#9;&#9;c2.9,3.9,5.3,8.1,8.2,12.1c-1.2-1-2.3-3.2-3.4-4.8c-1.5-1.7-2.6-4.1-4.2-5.4c0.3-0.8-0.6-0.6-0.8-1.1l0.1-0.2c-0.5-0.5-1.2-1-1.4-2&#10;&#9;&#9;l-0.2,0.2c-2.3-2.1-3.9-5-6-6.8l0.1-0.1l-0.3-0.3l-0.1,0.1l-0.5-0.8l-0.2,0.2c-2.3-2.3-4.3-3.9-6.8-6.1c-3.3-1.6-6.4-3.5-9.9-4.3&#10;&#9;&#9;c-4.6-0.1-9-0.2-12.7,2.1c-1.1,0-1.9,1-2.8,1.4c5.5-5,14.5-5,20.8-1.9c3.8,1.1,7,4.3,10.1,6.8C364.3,65.9,367.2,69.8,370.5,73.4z&#10;&#9;&#9; M361.6,58.5c0.6,1.4,0.3,2.8,0.2,4.2c-2.5-2.2-5.1-5.1-8.1-6.6C356.1,57.5,359.2,57.2,361.6,58.5z M353,55.4&#10;&#9;&#9;c-1.5-1-4.3-1.8-6.5-2.8l-0.6-1.1C348.5,52.2,350.6,54,353,55.4z M343,52c-1.9-0.3-4.1-0.2-5.9,0.5l-1.9-2.5&#10;&#9;&#9;C337.8,50.9,341.9,49.3,343,52z M298.9,39.3c2.3-1,5.3-2.7,7.7-0.8l3.1,0.5c5.6,1.1,9.7,5.8,14.6,8.6c3.3,1.7,7.7,2.1,9.6,5.7&#10;&#9;&#9;c-4.5,1.7-8.6,5.4-11.8,9.2c-2.5-1.5-5.3-4-4.8-7.3c0.1-1.2-0.1-2.3-0.5-3.2l-0.5,0.5c0,3.2-1,7.2,1.5,9.4c0.8,1.7,4.4,1.7,2.9,4.2&#10;&#9;&#9;c-1.4-2.5-5-3.9-5.1-7c0.3-4.8,0.6-10.1-2.8-13.6c-0.1-2.1-2.5-3.4-4.2-4.1c-0.3-0.1-0.5,0.2-0.6,0.3c0.3,0.9,1.4,0.8,2.1,1.4&#10;&#9;&#9;c2.5,2.3,3,5.8,2.5,9.3c-0.3-1.9,0.1-4-0.9-5.6c-1.1,0.9-0.6,3-1,4.5c-1-0.6-1.7-1.8-2.9-2c-1.3,0.6,0.3,1.2,0.3,1.9&#10;&#9;&#9;c1.5,1.7,2.9,3.5,3.6,5.5c-3.2-1.8-7.6-1.7-12.1-1.5c0.5-0.8,1.5-1.5,2.3-2c0.6-0.5,1.7-0.4,1.9-1.2c-1.7-0.5-3.5-1-5.1-1.5&#10;&#9;&#9;c1.2-1.7,3.7-1.2,5.5-1.1l0.3-0.3c-1.5-1.7-4.4-1.4-6.6-1.2c2.2-1.3,5-0.3,7.1,0.3c0.2-0.2,0.5-0.4,0.3-0.6c-2.6-2.3-6.5-3.4-9.9-2&#10;&#9;&#9;C295.4,43.1,296.5,40.4,298.9,39.3z M322.6,69.3h-0.3c0-2.4,1-4.4,1.5-6.6h0.3C323.8,64.8,322.6,66.9,322.6,69.3z M322.8,74.5&#10;&#9;&#9;c-0.6-0.4-1.5-0.1-2-0.6c0.5-1.2,0.8-2.4,0.9-3.7l2,0.3C324.2,71.9,322.9,73.1,322.8,74.5z M317,76c-1.1-0.4-2.3-0.5-3.4-1.1&#10;&#9;&#9;c0.5-0.5,0.5-1.1,0.5-1.7c1.1-0.3,2.6,0.9,3.1-0.6c-1.2-0.6-4,0.7-3.6-1.7c-0.2-1.9-0.8-3.6-0.6-5.7c1.7,1.9,4.5,2.8,5.7,4.9&#10;&#9;&#9;c0.3,1.2-1.1,0.8-1.3,1.7C317.6,73.3,317.4,74.6,317,76z M320,69.9h0.3c-0.6,1.6-1.3,3.8-1.9,5.4l-0.3,0.3&#10;&#9;&#9;C318.3,73.7,319.6,71.9,320,69.9z M311.6,66.6c0.2,1.7,1.5,3.3,0.8,5c-2.5,0.8-5-0.9-7.5-0.3c-1.2-1.5-3.2,0.3-4.5-0.9&#10;&#9;&#9;c-1-0.3-1.5,0.4-2.3,0.6c-0.2,0.6,0.3,0.6,0.6,0.8c1.8-1,3.6,0.7,5.7,0.3c1.8,1.3,3.8-0.6,5.4,1.1c0.8-0.2,1.5,0.2,1.9,0.9&#10;&#9;&#9;l-0.1,0.5c-4.1-0.8-7.7-1.6-12.1-1.7c-0.7-0.6-1.7-0.6-2.6-0.6c-0.1-2.6,1.5-4.5,2-6.8c1.7-2.5,5-0.4,7.3-1.2l-0.5-0.6&#10;&#9;&#9;c-3-1.2-8.3,1.5-9-3.1c0.7-3,4.3-2.9,6.7-3.9c3.6,0.3,6.9,1.3,9.4,4.2c0.6,1.2-0.4,2.1-0.5,3.2c-1.1,1-2.6-0.6-3.5,0.8&#10;&#9;&#9;C309.4,65.8,311.2,65,311.6,66.6z M297.7,79.1c-0.7-0.2-1.7-0.2-2-1.1l0.5-1.5l2.2,0.5L297.7,79.1z M307.6,77.6&#10;&#9;&#9;c-0.7,1.3-0.3,3.5-2.5,3.5c-0.9-0.2-1.5-0.8-1.7-1.7c-0.1-0.8,1-2-0.3-2.6c-1.5,0.6-0.1,3.3-2.3,3.1c-0.8-0.2-2.1-0.7-1.4-1.9&#10;&#9;&#9;c0.5-0.5,0.1-1.5,0.8-1.9c2.8-0.1,5.4,0.6,7.9,1.2v0.3C308,77.5,307.7,77.6,307.6,77.6z M305.1,75.9v-0.1h0.5v0.1H305.1z&#10;&#9;&#9; M311.5,78.9c-0.5,1-1,1.9-1.9,2.6c-0.5-0.5-1.5,0.3-1.5-0.6c0.1-1.2,1-2.1,1.1-3.4C309.9,78,311.9,77.8,311.5,78.9z M313,79.4&#10;&#9;&#9;l0.3-0.6l1.7,0.6H313z M315,78.5c-2.8-1.3-6-1.7-9-2.5c4.4,1,9,1.4,12.8,3.9l0.9,0.1C318.3,80.2,316.6,79,315,78.5z M322.3,81.3&#10;&#9;&#9;c-0.6-0.3-1.4-0.1-2-0.1c0-0.6,0.6-0.5,1-0.5l0.5,0.5c0.6,0.1,0.4-0.8,1-0.6C322.6,80.9,322.8,81.2,322.3,81.3z M323.1,79.3&#10;&#9;&#9;c-1.2-1-2.5-0.8-4.1-0.6c-6.7-2.5-14-4.6-21.8-3.7c-0.8-0.7,0.1-1.5,0.5-2c0.6,0,1.1,0.5,1.5,0.8c8.9-0.6,16.1,3.4,24.2,4.1&#10;&#9;&#9;C323.6,78.3,323.2,78.8,323.1,79.3z M325,80.4c-0.3,0.3-0.8,0.1-1.3,0.1c0-1.2,1.4-1.9,0.6-3.2c-1.6-0.6-3.7-0.2-5.4-0.8&#10;&#9;&#9;c-0.1-0.4,0.3-0.7,0.6-0.8c1.4-0.3,2.5,0.5,3.9,0.5l1.4-4.5c0.2,1.5-0.5,2.9-0.8,4.4c0.3,0.6,1.2,0.1,1.5,0.5&#10;&#9;&#9;C325.8,77.8,325.5,79.2,325,80.4z M325.2,74.6v-0.5c0.3,0,0.5,0.3,0.6,0.5H325.2z M326.2,79.4l0.1-0.5c3.7,0.5,7.4,1.5,11,2v0.2&#10;&#9;&#9;C334,80.6,330,79.8,326.2,79.4z M334.5,103.3c1.9,1.4,1,4.3,1.4,6.3c0.5,1.7,1.4,3.4,3.1,4.2l0.3-0.5c-2-3.4-1.2-7.9-1.2-11.9&#10;&#9;&#9;c0.3-2.8,0-6.2-0.3-9.1c4,5.8,2.2,14.1,5.7,20.1c1.5,3,3.1,5.9,4.6,9c-2.3-1.5-3.7-3.9-5.9-5.6H342c0.1,1.6,0.9,3.3,2,4.6l5.1,6.8&#10;&#9;&#9;c-5.9-4.2-12-10.1-16.9-15.8C332.6,108.6,333.3,105.8,334.5,103.3z M328.6,120.2c5.9,7.2,13.4,12.5,21.5,16.3&#10;&#9;&#9;c0.1-0.2,0.4-0.4,0.3-0.6c-7.5-5-14.7-9.8-19.9-17.7v-0.8c3.9,5.4,9.2,9.8,14.5,13.9c2.8,1.7,5.3,4.2,8.2,5.6&#10;&#9;&#9;c-0.1,0.4-0.5,0.6-0.8,0.9c-0.6-0.6-1.7-0.6-2.3-0.6c-6.5-3.2-12.6-7.7-18.3-11.9c-0.2,0.2-0.5,0.3-0.3,0.6&#10;&#9;&#9;c5.5,5,11.9,10.1,18.1,14.5c-0.1,0.3-0.4,0.5-0.5,0.8c-6.6-4.6-13.8-9.7-18.8-16.6C330.5,122.8,327.7,121.7,328.6,120.2z&#10;&#9;&#9; M325.2,125.3c2.3,1,3.4,3.4,5.2,5.1c5,5.2,10.5,10.6,15.9,14.7l-0.6,0.8c-7.4-6.1-14.6-13-20.6-20.3L325.2,125.3z M290.9,178.5&#10;&#9;&#9;c0.9-1.6,3.3-0.6,3.7-2.5c-0.6-0.4-1.6-0.2-1.9-1.1c0.5-2.3,3-2.2,4.5-3.1c0.9-0.2,1.7-0.6,2.5-1.1c0-1-1-1.5-1.8-1.8&#10;&#9;&#9;c-1-0.5-1.9,0.3-2.8,0.5c0.4-0.9,1.7-1.3,2.1-2.3c-1-2.2,1.5-3.2,2.8-4.3c1.9-1.2,4.3-1.4,6.3-2.5c0.2-0.4-0.3-0.4-0.5-0.6&#10;&#9;&#9;c-2.1-0.1-4.3,0.7-6.3,1c2.1-2.8,5.5-4.3,7.5-7.2c0.1-0.5-0.5-0.6-0.8-0.8c-1.7,0.5-3.2,1.4-4.8,2.1c-0.2-1.3,0.3-2.3,0.8-3.2&#10;&#9;&#9;c1.2-1.1,3-1.8,4.8-1.2c2.8,1.4,5.1,3.3,7.4,5.9c1.5,1.9,2.6,4.1,3.4,6l0.3-0.3c-1-5.7-4.6-12.5-10.8-13.8&#10;&#9;&#9;c-0.8-0.6-1.9-1.2-2.3-2.2c-0.5-3.4,4.2-4.6,6.1-6.6c-1.1,0-2.5,0-3.4,0.6c1.2-3.4,4.5-5.7,7.4-7.3c5.5-2.2,10.6,0.2,14.4,4.5&#10;&#9;&#9;c1.5,1.6,1.7,4.2,1.1,6.3l-2.3,5c1.4,0.2,2.1,1.2,2.5,2.5c0.7,2.3-1.2,3.9-0.8,6.4c-1,4.2-4.2,7.4-6.3,11.1&#10;&#9;&#9;c-1.4-5.2,5.2-7.4,4.6-12.1c-1.4,0.5-0.9,2.5-2.3,3.1c0.5-1.4,1-3.5,0.1-5c-0.9,0.5-0.1,1.7-0.6,2.5c-1.7,3-3.1,6.1-5.1,9&#10;&#9;&#9;c-3.2-0.7-4.2-4.8-7.7-4.5l-0.5,0.5c2.5,1.5,6.1,3.6,7.3,6.8c-1.2,3.9-2.6,7.7-3.5,11.6c-0.5,0.6-0.8,1.2-1.4,1.7&#10;&#9;&#9;c-2.6-3.9-7.7-3.5-11.4-5.4c-0.7,0.1-1.9-0.5-2.3,0.5c0.2,0.8,1.4,0.8,2,1.2c3.8,0.8,7.6,2.6,9.9,6.1c0,0.6,0,1.5-0.8,1.5&#10;&#9;&#9;c-7.4-0.5-13-5.2-20.6-5C290,180.6,290.6,179.3,290.9,178.5z M285.6,228.4c-4.5-3.9-2.6-10.4-1.1-15c2.5-9.9,2.4-20.8,6.6-29.9&#10;&#9;&#9;c5.7,0.3,11.4,0.9,15.8,4.2c-0.2,3.6-0.6,7.5-2,10.8c-0.2,2.5-0.8,5-1.9,7.1c-0.7-1.9,0.5-5.3-2.1-6.2l-0.5,0.5&#10;&#9;&#9;c-0.5,6.4,0.1,13.6-2.9,19.2c-0.7,2.2-0.3,5.2-2.8,6.4c-1.2,0.7-2.3-1.5-2.6,0.1c1.4,1.8,5.8,0.7,4.5,4.5c-0.8,0.5-0.7,2.3-2,1.5&#10;&#9;&#9;c-1.3-0.3-1.4-3.5-2.6-1.7c0.3,2.7,2.2,5.3,0.2,7.7c0.1,2.6-3.3,1.6-4.8,1.4c-2.1-0.5-3.5-3.3-5.5-3.4c-0.5,3.2,3.7,2.8,5.4,4.5&#10;&#9;&#9;c1.4,1,3.5,2.1,3.2,4.1c0,1.5-0.5,2.9-0.6,4.4c-0.6-0.9-2-0.5-2.6-0.8c-3.5-3.1-7.5-4.9-11.5-6.8c-0.3-0.7-1.5-0.8-1.2-1.5&#10;&#9;&#9;c0.9-0.8,2.1,0.1,3-0.1c2.2,0.7,4.1,2.2,6.5,2.6c0.5-0.3,0.3-0.9,0-1.2c-0.8-2.6-5-3-4.6-6c2.3-2.6,4.4,1.3,6.8,1.5&#10;&#9;&#9;c1.2,0.1,2.8,1,3.7-0.2c1.5-2.2,0.6-5.4-0.5-7.4c-0.6-0.1-1-1.4-1.5-0.5c-0.3,1.3,0.8,3.4-1,3.9c-2.1,0.8-3.2-1.5-4.2-2.6&#10;&#9;&#9;c1.5,0.3,2.6,1.2,3.9,1.7C287.2,230.2,286.1,229.3,285.6,228.4z M259.6,224.2h-0.2v-0.8h0.2V224.2z M273.4,212.4&#10;&#9;&#9;c-0.6,1,0.8,2.5-0.6,3.1c-0.3-1,0-1.9-0.3-2.8c-0.6,0.2-1.1,0.6-1.5,1.1c0,0.8,0.3,2.5-0.5,2.9c-0.1-0.8,0.4-2.1-0.8-2.3H269&#10;&#9;&#9;c-0.7,1.2,0.2,3.1-0.8,4.1l-0.3-2.2c-0.7-0.1-1.9,0-1.7,1.2c-0.1,0.8,0.2,2.3-0.6,2.5c-0.6-1,0.6-1.9,0-2.6c-0.6-0.1-1,0.2-1.4,0.6&#10;&#9;&#9;c-0.8,1,0.3,2.8-0.8,3.6c-0.5-1.2,0.3-2.5-0.2-3.4c-2.4,0.5-1.1,3.3-1.7,4.6c-0.1-0.1-0.2,0.1-0.3,0.1c-1-0.8,1.4-2.8-0.8-2.8&#10;&#9;&#9;c-0.5,0.5-0.8,0.9-0.9,1.5c-0.1-1,0.1-1.9,0.5-2.8c-0.1-0.2,0.4,0.6,0.8,0.3l1.4-2.2c-0.1,0.3,0.1,0.5,0.3,0.6&#10;&#9;&#9;c1-0.4,1.2-1.7,1.7-2.5c-0.1-0.4,0.3-1-0.3-1.2c-1.2,0.3-1,1.5-1.5,2.3c-0.5-1-0.8-0.7,0-1.7c5.7-5.2,12.1-9.5,19.2-11.6h0.8&#10;&#9;&#9;c-0.7,1.7,0.2,4.6-1.4,6.2l-0.1,2h-0.3c-0.5-0.7,0.4-2.1-0.8-2.3c-2,0.1-1.1,2.3-1.5,3.5c-0.1-0.1-0.3,0.1-0.3,0.1&#10;&#9;&#9;c-0.1-0.9,0.3-2-0.3-2.8c-2.8-0.2-0.8,3.2-2.3,4.1c-0.1-0.9,0.3-2-0.3-2.6C274.4,211.5,273.7,211.8,273.4,212.4z M286.8,251&#10;&#9;&#9;l0.3,1.4c-0.8-1.2-2.6-3.8-4.6-4.6c-0.1-1.6-1.9-1.6-2.8-2.6c-3.2-1.4-6.2-2.3-9.7-2.8C276.6,243.1,283,245.2,286.8,251z&#10;&#9;&#9; M276.5,245.8c2.5,0.8,4.8,2.1,7,3.4c1.3,1.7,3.9,3.4,3,6.2c-1-0.1-0.6-1.5-0.9-2.3c-2.1-3.6-6.4-5.9-10.3-7.1&#10;&#9;&#9;c-2.6-0.7-5.5-1.9-8.3-1.1C270.1,243.4,273.5,245.1,276.5,245.8z M284.5,270c-0.2,0.3-0.2,0.8-0.5,1.1c-0.1-0.6,0-1.2,0.1-1.8&#10;&#9;&#9;c0-0.2,0.1-0.3,0.1-0.5c0.2-0.6,0.4-1.2,0.5-1.7c0.2,0.7-0.3,1.2-0.5,1.7c0,0.2-0.1,0.3-0.1,0.5C284.2,269.5,284.3,269.8,284.5,270&#10;&#9;&#9;z M269.5,285.3c0-2.1,2.3-1.5,2.8-3.4c3.7-3.2,6.7-6.8,10.5-9.9C278.5,276.6,274.1,281,269.5,285.3z M282.7,277.2l-0.8,2.9h-0.1&#10;&#9;&#9;l0.8-3L282.7,277.2z M256.5,278.1c-0.3,1.6-0.8,3.1-1.2,4.6C255.2,281.3,255.9,279.5,256.5,278.1z M255.4,273.7&#10;&#9;&#9;c0.8,0.3,2.1,0.1,2.5,0.8C257.2,274.5,256.1,274,255.4,273.7z M255.7,295.6h0.1c-0.3,5.6-2,10.8-0.9,16.8c0.6,2.2,2.6,3.8,4.8,4.2&#10;&#9;&#9;c3.4,0.8,5.7-2.8,7.6-5.1c6.3-8.8,10.5-18.3,13.5-28.5c-2.7,11.2-7.9,21.5-13.9,31.2c-2.6,2.3-4.8,5.4-8.8,4.5&#10;&#9;&#9;c-3.9-1.5-3.9-6.1-4.2-9.9C253.8,304.2,255.1,300,255.7,295.6z M272.3,296.9c-1.1-0.3-2.1-0.6-3.1-1c0.5-3.4,1.9-6.4,3.1-9.5&#10;&#9;&#9;c1.2-2.6,3.9-1.3,5.9-0.8v1.2l-3.9,10.4C273.6,297.7,272.7,297.3,272.3,296.9z M272.5,299.8v0.8c-1.7,2.9-3.4,5.9-5.5,8.6&#10;&#9;&#9;c0.3-3.6,0.6-7.2,1.8-10.5L272.5,299.8z M262.5,292c0.4-1.2,1.6-2,2.1-3.1c3.7-7.2,6.6-14.7,8.2-22.8&#10;&#9;&#9;C271.4,275.5,268.7,284.7,262.5,292z M265.4,311.4l-1.1,1c-0.5-2.2,0.2-5,0.6-7.4l1.5-6.3c-0.3,3.5-0.5,6.6-1.2,10.2&#10;&#9;&#9;C265,309.7,265.5,310.4,265.4,311.4z M264.1,297.3c-0.6,5-2.1,11-1,16.5c-0.5,0.3-0.9,0.8-1.5,0.8&#10;&#9;&#9;C260.3,308.9,262.6,302.7,264.1,297.3z M268.9,253.8v-0.3c5.3,1.5,10.2,3.8,15.9,4.2c0,0.5-0.5,0.8-0.9,0.9&#10;&#9;&#9;C278.5,258.1,273.9,255.4,268.9,253.8z M267,250.5c2.9,0.5,5.3,2.1,8.1,2.8c-2.5-0.3-5.6-1.2-8.4-2.1L267,250.5z M266.3,273.9&#10;&#9;&#9;c-0.2,0.3-0.3,0.7-0.3,1.1c-0.8,0.3-1.5-1.2-2.5-0.6C263.6,272.8,265.7,274,266.3,273.9z M265.5,250.4c0.3,0.2,0.1,0.6,0.1,0.9&#10;&#9;&#9;C265.6,251,265.1,250.7,265.5,250.4z M264.3,250.2v0.5l-0.2-0.6L264.3,250.2z M265.6,258.7c-1.8,3-3.6,6.1-5.4,9.1&#10;&#9;&#9;c0,0.2,0.1,0.4-0.1,0.5h-0.3C261.4,265,263.4,261.8,265.6,258.7z M259,270.2c0.5-0.4,1.3-0.6,1.5,0.2c-0.1,0.6,0.1,1.8-0.1,2.6&#10;&#9;&#9;l-1.1,0.5c0.3-0.5,0.3-1.1,0.3-1.7C259.6,271,257.9,270.9,259,270.2z M258.7,272l-0.1,1.1c-1-0.1-2.6-0.3-3.4-1.1l-0.1-0.8&#10;&#9;&#9;C256.2,271.5,257.6,271.3,258.7,272z M255,283.3c0.6,1.5-0.5,3-0.3,4.6C254.3,286.7,254.7,284.8,255,283.3z M254,271.6&#10;&#9;&#9;c0.5,0.3-0.1,0.8-0.1,1.2C253.5,272.6,254,272,254,271.6z M297.6,301.8c-5.1,13.6-12.3,26.9-23.5,37.5c-2.8,1.8-5.7,4.4-9.4,2.9&#10;&#9;&#9;c-2.8-0.6-5.4-1.9-7.3-4.2c-1.7,0.7-3.1,2.2-5.1,2.1c7.2-3.7,14.1-10.5,19-16.8c6.3-7.8,10.1-16.9,14.1-25.8&#10;&#9;&#9;c4-0.4,7.7,0.9,11.2,2.5C296.9,300.4,298.3,300.9,297.6,301.8z M307,262.3c-1-0.1-2.1-0.5-2.9-0.8&#10;&#9;&#9;C305.3,261.1,305.9,262.2,307,262.3z M342.1,275.5c-8.8-1.9-17-5.2-25.7-7.4c-4-1.4-8.1-2.6-11.9-4.2v-0.6c1.4,0.9,3,0.5,4-0.8&#10;&#9;&#9;c6.5-5.5,11.9-12.2,17-18.4c7.4,1.8,14.6,3.6,21.7,6.2c-1,7.5-1,14.3-0.8,21.5c0.2,0.7,0.4,1.5,0.2,2.2&#10;&#9;&#9;C345.2,274.6,344,276.3,342.1,275.5z M357.3,289.1c-5-2-9.2-4.9-13-9.2l0.3-0.8c1.6,1.6,3.2,3.1,4.4,5c3.7,3,8.3,4.1,12.2,6.6&#10;&#9;&#9;C359.6,291.3,358.5,289.8,357.3,289.1z M362.1,288.6c-5.2-2.1-10.5-3.7-14.3-8.7c-0.3-1-1.1-2-0.8-3.1c0.6,0.3,0.6,1.2,0.8,1.9&#10;&#9;&#9;c2.7,5.6,8.7,7.7,14.4,8.4L362.1,288.6z M408.8,148.2c5,1.4,9.9,5.3,10.6,10.7c0.8,3.2,0.8,6.2,1.2,9.5&#10;&#9;&#9;c0.3,18.3-5.2,35.7-10.7,52.4c-7.6,20.3-15.4,40.6-31.7,57.4c-3.4-0.2-7-0.5-9.1-3.1c-1.9,1.2-3.8,3.3-5.9,4.5&#10;&#9;&#9;c13.3-12.5,21.6-27.5,29.3-42.4c10.3-22.3,17.5-45.9,18.9-71.7C411.7,159.7,411.1,153.2,408.8,148.2z M393.4,124.6&#10;&#9;&#9;c5.5-4.5,12.4-8.5,20-9.3C406.4,117.7,399.5,120.2,393.4,124.6z M405.9,100.5v-0.3c3.1-2.6,6.5-5.2,10.4-6.3c1.2,0.1,3-0.3,3.5,0.9&#10;&#9;&#9;c1.2,4.4-3.7,3.1-5.6,4.8c-1,0.8-2.6,0.9-3.1,2.2l0.3,0.3c3.4-1,6.8-2.5,10.5-2.3c2.1,2,1.5,5.1,4.1,7c3,4.4,8.1,6.4,11.7,10.1&#10;&#9;&#9;c-1.5,0.5-2.9,1-4,2.3c-1.4-0.3-2.6-1.1-3.9-1.9c0.9-0.3,1.7-0.7,2.5-1.4c-0.8-0.9-2.1-0.2-2.9,0c-0.5,0.1-1,1.2-1.4,0.3h-0.1&#10;&#9;&#9;c0.5-0.8,1.7-1.3,2.8-1.7c0.7,0.1,1.2-0.2,1.9-0.3c0.2-0.5-0.5-0.4-0.6-0.6c-2.9-0.4-5.8,3.6-8.1,0.3c-3.2-1.5-6.6-2.5-10.1-3.4&#10;&#9;&#9;C411.8,106.8,409.4,102.9,405.9,100.5z M433.2,121.4c0.5-0.3,1.2,0.1,1.4,0.5v0.5c-1.9-1.4-4.5-1.5-5.9-3.4&#10;&#9;&#9;C430.3,119.4,431.9,120.5,433.2,121.4z M426.6,116.9l0.3-0.3c1.9,1.1,3.7,2.2,5.6,3.3C430.8,119.1,428.5,118.2,426.6,116.9z&#10;&#9;&#9; M415,114.1c-0.1-1-0.3-1.8-0.8-2.6c4.3,0.9,8.4,2.3,11.9,4.8C423,115.2,419.1,113.7,415,114.1z M428.4,123.1&#10;&#9;&#9;c-1.9,1.2-4.1,1.9-6.2,2.6c1.7-1.4,5.1-1.9,6.6-4.3v-1h0.1C429.1,121.3,429,122.4,428.4,123.1z M429.2,130.4&#10;&#9;&#9;c-0.1-1.5,0.6-3.7,1.2-5.4c0.6-0.4,2.1-2.6,2-0.6C430.7,126.1,430.1,128.3,429.2,130.4z M433.4,130.4c-0.5-1.7,0.6-3,1-4.3h0.5&#10;&#9;&#9;l2.8,2C436.4,128.9,434.5,129.7,433.4,130.4z M437.4,123.7c2.9,0.8,5.9,1.9,8.4,3.4c-1.4,0.3-2.1-1.2-3.4-1.4L437.4,123.7z&#10;&#9;&#9; M449.1,140c-0.6,0.3-1.3-0.1-1.8-0.3l-0.6-0.6c0.1-0.6,0.8-0.5,1.2-0.8C448.1,139.1,449.4,139.1,449.1,140z M449.3,132.4&#10;&#9;&#9;c-1.7-0.1-3.1-1.2-4.6-1.9l0.8-1l4.3,1.4C449.7,131.4,449.9,132.1,449.3,132.4z M450.5,134.7c0-1.3,1.5-2.4,0.1-3.5&#10;&#9;&#9;c0.7-0.1,1.1,0.7,1.5,1.1C451.2,132.9,452.5,135.9,450.5,134.7z M453.7,136.4l0.2-3.3c0.2,0.2,0.5,0.2,0.6,0.5&#10;&#9;&#9;C454.8,134.4,454.3,135.6,453.7,136.4z M456.4,137.3l-0.1,0.1l-0.2-2.9C458.5,134.7,456.1,136.4,456.4,137.3z M458.9,138.9&#10;&#9;&#9;c-1-0.6,0-1.9-0.3-3c0.6,0.1,1.1,0.5,1.7,0.6L458.9,138.9z M473.3,139c-0.6,0.9-1.5,0.5-2.2,0.2c-1.4-0.4,0.1-3.3-1.7-2.3l-0.6,1.1&#10;&#9;&#9;c-4.8-0.8-9.4-2-13.3-4.8c3.3,1.9,7.5,3.9,11.9,4.2l0.3-0.3c-1.2-1-3-1.1-4.5-1.7c-5.9-1.7-10.3-7.1-16.7-7.4&#10;&#9;&#9;c-0.1-1,0.8-0.1,0.9-0.8c3.1,1.2,5.9,2.5,9,4.1c5.2,2.1,10.3,4.6,15.9,5.6C473,137.3,473.7,138.2,473.3,139z M352.2,67v-0.5&#10;&#9;&#9;c1.3-0.1,1.7,1.3,2.2,2.2c0.9,2.3-0.3,4.5-0.8,6.6l-0.5-0.6C353.3,72.2,353.7,69.1,352.2,67z M389,73.9c0.6-0.9,0.1-2.1,0.8-2.8&#10;&#9;&#9;c0.8,1.7,3.1,1.5,4.1,3.1c0.9-0.1,1.7,0.1,2.5,0.5c-1.4,0.7-3.2,1.1-5,1.2C390.6,75.2,389,75.3,389,73.9z M400.6,82.5&#10;&#9;&#9;c0.6,0.8,1.5,2,1.1,3.1c-1.4,2.2-4.6,2.3-7,2.3c0.6-1.2,2.3-0.9,3.4-1.4C399.7,85.7,400.3,84,400.6,82.5z M381.6,119.1v-0.5h0.3&#10;&#9;&#9;C382,118.8,381.7,118.9,381.6,119.1z M381.6,143.2c-0.1-0.6,0.6-1.1,1.1-1.4c0.4-0.1,0.6,0.1,0.8,0.5c0,0.6-0.6,0.7-1,1.2&#10;&#9;&#9;C382.2,143.5,381.8,143.6,381.6,143.2z M385.8,144l0.5,0.6c-0.2,0.5-0.1,1.2-0.8,1.5c-1.3-0.5-2.4,2.4-2.8-0.2c0.7,0,1.3-1.3,2-0.5&#10;&#9;&#9;C385.5,145,384.3,143.3,385.8,144z M385.4,151.4l0.8-0.6c0.4,0.4,1.1,1.2,0.6,1.9c-0.4,0.3-0.9,0.6-1.4,0.3&#10;&#9;&#9;c0.1-2.5-3.3-0.3-3.7-2.5c0.1-1.2,2.1-3.9,2.5-0.9c0,0.5-0.6,1,0,1.4C384.6,150.9,385,151,385.4,151.4z M378.4,152.9&#10;&#9;&#9;c-0.2,0.6-0.8,0.7-1.4,0.6c-0.8-0.1-1-0.8-1.1-1.5c0.3-0.4,0.6-1.8,1.2-0.9c0.1,0.5-0.8,1.3,0.2,1.7&#10;&#9;&#9;C377.8,152.9,377.9,152.6,378.4,152.9z M379.6,155.1c-0.7-0.6-0.5-1.7-0.3-2.5c0.1-0.2,0.3-0.2,0.5-0.2c0.4,0.3-0.1,1.5,0.6,1&#10;&#9;&#9;c0.3,0.5,0.8,0.8,0.8,1.5C380.7,155.7,380.2,154.9,379.6,155.1z M386.3,155.5l-0.9,0.5c0.4,0.6,0.6,1.4-0.3,1.7&#10;&#9;&#9;c-1,0.3-1.9,0.8-3,0.8c-0.3-1.7,1.9-0.4,2.6-1.7c0.1-0.5,0.7-0.6,0.6-1.1c-0.5-0.1-1.2,0.6-1.9,0.2c-1-0.6-1.2-1.7-0.6-2.5&#10;&#9;&#9;c0.5-0.4,0.8,0.1,1.2,0.2c0.3,0.5-0.4,0.6-0.5,1c0.6,0.6,1.4-0.6,2.2,0C386.1,154.8,386.3,155.1,386.3,155.5z M381.5,161.8H381&#10;&#9;&#9;v-0.9c0.3,0.1,0.5,0.1,0.6,0.3C381.6,161.4,381.7,161.7,381.5,161.8z M298.3,167.8c0.1-0.9,1-0.8,1.5-1.2c4.9-0.6,10.4-0.8,14.4,2&#10;&#9;&#9;l0.5,0.9c0.3,0.9-0.3,1.3-0.9,1.7c-2-0.9-3.4-3.2-5.6-3.6C304.9,167.7,301.4,167.5,298.3,167.8z M296.6,178.2&#10;&#9;&#9;c0.3-3.4,4.3-4.1,5.9-6.4c0.5,1-0.3,2.1-1.1,2.5h-0.3c-0.6,1.5-3,1.6-2.6,3.4c2.4,2.9,6.5,1.9,8.7,4.6c0.4,1,1.5,1.2,2.1,1.7&#10;&#9;&#9;c-2.3,0.3-3.6-1.9-5.9-2.2C300.7,181.8,298.4,180.3,296.6,178.2z M280.1,207.5c-0.4-1.2,0.4-2.9,1.7-3.1c0.6,1.3-0.8,2.1-1.4,3.1&#10;&#9;&#9;H280.1z M277.6,208.4h-0.3c-0.1-1.2,0.6-2.8,1.9-3.4C279.4,206.2,278.7,207.8,277.6,208.4z M274.9,209.5c-0.8-0.8,0.5-2.3,1-3.4&#10;&#9;&#9;c0.4-0.1,0.6,0.1,0.8,0.5C276.5,207.7,275.9,208.8,274.9,209.5z M273.7,207.8c0.1,1.2-0.5,2.5-1.5,3.2c-0.5-0.8,0.2-2,0.6-2.9&#10;&#9;&#9;C273.1,208,273.3,207.7,273.7,207.8z M271.2,209c0.7,0.6,0,1.5,0,2.2c-0.5,0.5-0.6,1.1-1.2,1.5c-0.5-0.1-0.6-0.3-0.6-0.8&#10;&#9;&#9;C269.8,210.9,270.2,209.7,271.2,209z M268.6,211.3c0.5,1.2-0.5,2.3-0.9,3.3l-0.6,0.3C266.7,213.7,267.6,212,268.6,211.3z&#10;&#9;&#9; M265.9,212.9l0.5,0.2c-0.1,1.4-0.6,2.6-1.5,3.5C264.1,215.3,265.2,213.8,265.9,212.9z M308.7,233.2c0.2-1.4,1.7-2.1,2.8-3&#10;&#9;&#9;c0.8,0,1.7,0.7,2,1.5c-0.1,2.3-0.1,5.2-1.4,7c-0.5-0.6-0.1-1.5,0-2.2c-0.5-1.1-0.2-2.5-1.4-3.4&#10;&#9;&#9;C309.8,232.7,309.4,234.1,308.7,233.2z M308.1,247.3c0.8-0.9,1.9-1.6,1.7-3.1c-0.1-0.8-0.9-1.1-1.7-0.9c-0.9,0.6-1.5,1.5-1.5,2.6&#10;&#9;&#9;C306.8,246.4,307.2,247.8,308.1,247.3z M309,244.5l-0.3,1.4l-0.5,0.5L309,244.5z M308.2,243.8c0.2,1-0.2,1.6-0.9,2.2&#10;&#9;&#9;C306.7,245.3,307.6,244.4,308.2,243.8z M329.1,246.9c-0.1,1-0.7,1.6-1.5,2.2c-0.9,0.1-1.9-0.1-2.1-1c0.1-0.8,0.8-1.5,1.5-1.8&#10;&#9;&#9;C327.8,246.3,328.8,245.9,329.1,246.9z M324.8,251.8c0.1,1.2-0.9,1.8-1.9,2.1c-0.5-0.1-1.3,0.3-1.7-0.3c0-1,0.4-2.3,1.5-2.6&#10;&#9;&#9;C323.6,250.6,324.5,250.9,324.8,251.8z M320.8,256.2c0.2,1-0.8,1.7-1.5,2c-0.8,0.3-2,0.3-2.3-0.6c0-1.2,0.7-1.9,1.7-2.3&#10;&#9;&#9;C319.5,255.3,320.5,255.3,320.8,256.2z M315.7,260.9c0,1.5-1.7,1.9-2.6,2.6c-0.9,0.3-1.2-0.4-1.5-0.9c-0.1-1.4,1.3-2,2.1-2.6&#10;&#9;&#9;C314.6,259.7,315.2,260.4,315.7,260.9z M345.6,271.7c0.3,1.2-1.2,1.6-1.9,2.2c-0.5,0.3-1.3,0.1-1.7-0.3c0.1-1,0.9-1.9,1.8-2.3&#10;&#9;&#9;C344.5,271.2,345.1,271.3,345.6,271.7z" style="fill: rgb(26, 26, 26);"/>
</g></g></svg>